<svg xmlns="http://www.w3.org/2000/svg" viewBox="0 0 219.64 219.64"><defs><style>.cls-1{fill:#197375;}</style></defs><title>2D</title><g id="Layer_2" data-name="Layer 2"><g id="Background"><path class="cls-1" d="M75.43,168.42v-1.27l.36-.73.54-.54-.73-.18.54-.73.18-1.27.54.18.18-1.45-.36-.18-.18.91-.36-.18c.18-.73.18-1.45.36-2.18l.18-.36-.18-.54v-.73h.18c.18-.73.54-1.27.73-2l.18-.91-.18-.91.18-.54v-.73l.36-.73a22.24,22.24,0,0,1,.36-3.45V149l-.18-.73-.54-.36v-.18l-1.09-.54-.91-.54-.36-.36-.18-.36v-.18L74.7,145a9.73,9.73,0,0,0-.91-2l-.18-.18-.18-.36-.36-.36-.36-.18.18-.18-.18-.54.18-.36.36-.36.18-.36-.18-.18-.18.18-.36-.18h-.18v-.54h.18l.18-.36.18-.36v-.18l.36-.18.36-.18v-.18H74v-.36h.18c0-.18.18-.36.36-.54l-.18-.18.18-.36-.18-.54.18-.18v-.36l-.18-.18-.18-.18-.18-.36h-.18l-.18.18-.18.18h-.18v.18l.18.36h-.36v-.36h-.18L72.7,135h-.54v.18L71.8,135l-.18-.18v-.18l-.18-.18-.18-.18h-.18v-.18l-.18-.18v.18l-.18.18-.18-.18h-.18v-.54h-.18l.18-.18c0-.18-.18-.18-.36-.36l-.18-.18-.18-.18-.18-.18v-.18h-.18v.18h-.54l-.18-.18h-.36l-.18-.18-.18-.18h-.36l-.18-.18-.36-.18-.54-.54-.18-.18-.36-.18h-.36l-.36.18H64.9l-.18-.54-.36-.18-.54-.18h-.36l-.54-.18-.36-.18-.18-.18H62l-.54-.18-.18-.18-.54-.36-.18-.36-.18-.18h.18V128l.18-.18v-.18l-.18-.18v-.18l-.18-.36-.36-.54-.54-.36-.18-.36-.36-.18-.18-.18v-.36l-.18-.18-.36-.36L58,124h-.36l-.54-.54v-.18l-.36-.36-.18-.36v-.18l-.36-.18H56l-.36-.18v.91l.18.18.18.36v.36l.18.36.18.18.18.18.36.36.18.54c.18.18.36.36.36.54v.36h.18c.18.18.18.36.36.54V127l-.18.18-.18-.36-.36-.36-.36-.18-.18-.18v-.73c-.18,0-.36-.18-.54-.36l-.18-.18-.36-.18-.36-.36h.18l.18-.18V124l-.36-.36-.36-.18c-.18-.36-.36-.91-.54-1.27l-.18-.54v-.36l-.36-.36h-.18v-.18h-.36l-.18-.18h-.54l-.18-.18V120l-.54-.54-.36-.91v-.18l-.18-.18-.36-.54v-.54l-.18-.36.18-.54v-.54l-.18-.54.18-.73.18-1.27-.18-.91-.18-.73-.18-.36v-.18l.73.18.18.73.18-.18v-.54l-.18-.54-.91-.73-.36-.36-.91-.36-.36-.73v-.54l-.19-.1v47.5l26.9,14.21.15-.46Z"/><path class="cls-1" d="M139.13,65a9.08,9.08,0,1,0-9.08,9.08A9.09,9.09,0,0,0,139.13,65Z"/><path class="cls-1" d="M147,65.17a1.44,1.44,0,0,1,0-.33,16.91,16.91,0,0,0-33.83.23c0,8.13,12.82,30.36,16.92,37.3C134.13,95.51,146.87,73.37,147,65.17ZM118.08,65a12,12,0,1,1,12,12A12,12,0,0,1,118.08,65Z"/><path class="cls-1" d="M146.53,77h0l.91-.73.91-.36.36.91-.36.73c-.93.62-1.87,1.11-2.8,1.7-1,2.33-2.18,4.73-3.36,7.09l.72,1-.36.18-.91-.1c-.6,1.18-1.2,2.33-1.8,3.47.43-.29.85-.58,1.26-.83h.36l-.54.91.73.18.36-.54h.91l.73-.54.54.91.54-.91-.54-.91.36-.36,1.45.36.54.54,1.81,1.63.36-.73-.54-.73v-.36l-.54-.18.18-.73-.18-1.09v-.54l.91-1.45.36-1.63.36-.36,1.27.54.18.91-.54,1.27.73.36.18,1.09-.18,2,.54.91-.18.91-.91,1.81.54.18.18-.54.54-.36.18-.73.36-.54-.36-.73.18-.91-.54-.18-.18-.73.36-1.45L150.92,86l.91-1.09-.18-1.27h.18l.18.91-.18,1.63.54.36-.18-1.09.91-.73h1.09l.91.91-.36-1.45V82.41l.91-.36h1.27l1.09-.18-.36-.91.54-1.27h.54l.91-.91,1.27-.36.18-.54,1.09-.36.36.54L163.62,77h.91l.18-.91.54-.91,1.27-.91.91.73-.73.54,1.09.36L168,77l.54-.54H170l1,1V55.1L149.82,65.9C149.6,68.73,148.33,72.66,146.53,77Z"/><polygon class="cls-1" points="169.61 81.14 169.24 81.68 169.79 81.86 170.51 82.23 170.93 81.95 170.93 80 170.88 80.05 169.61 81.14"/><path class="cls-1" d="M140.93,115.07l-.36.18v.54l-.18-.36v-.18l.18-.36-.18-.18-.54-.18-.18-.54-.36-.18v-.18h.54v-.54l.36-.18.36.18.18-.73v-.54h-.54l-.36-.18-.54.36-.54.18-.18.36-.54.18-.54.73.36.73v.54c.36.36.54.73.91,1.09l.18.54h-.18v.73l-.18.18v.36l.18.54h.54l.36.36.73.18.73-.18v-.18l-.18-.36v-.73l-.36-.18.18-.36h-.36l.18-.54.54.18.36-.54-.36-.36Z"/><path class="cls-1" d="M109.82,0A109.82,109.82,0,1,0,219.64,109.82,109.82,109.82,0,0,0,109.82,0Zm64,156.08a1.45,1.45,0,0,1-.8,1.29l-32,16.26,0,0-.07,0-.08,0-.22.08a1.45,1.45,0,0,1-.35,0h0l-.17,0H140a1.44,1.44,0,0,1-.38-.13l-30.55-16L78.92,173.61l-.09,0,0,0-.09,0-.19.08a1.28,1.28,0,0,1-.73,0l-.09,0-.22-.09,0,0L46.58,157.37a1.45,1.45,0,0,1-.77-1.27V52.73a1.45,1.45,0,0,1,2.11-1.27l22.48,11.8L72,64.1l6.29,3.3,30.05-15.95a1.44,1.44,0,0,1,1.47.07l4.32,2.26a19.8,19.8,0,0,1,35.5,8.94l22.05-11.29a1.45,1.45,0,0,1,2.11,1.29Z"/><path class="cls-1" d="M170.51,127.23l-.73.36h-.54l-.18.54h-.36l-.18-.36.18-.18-.73-.18h-.18l-.73.54-.36.54-.18.36c.36.36.54.91.91,1.27l.54.36.36.36.18.91v.91l-.36.36-.54.36-.36.36-.54.54-.18-.36.18-.36-.36-.36H166l-.18-.18-.18-.54-.54-.18h-.36v-.36h-.36v.54a2.23,2.23,0,0,1,0,.32l0,0,0,.1a2.4,2.4,0,0,1-.13.42v.21l-.18.54h.36l.18.54.18.36.73.18h.36l.18.18h.18l.36.36.18.36v1.09l.18.18.18.36v.18h-.36l-.54-.36-.54-.36V137l-.36-.36v-.36l-.18-.36v-.36l-.18-.18-.18-.18V135l-.54-.54v.36l-.18-.36v-.36h0v-.36c.06-.13.13-.25.18-.39v-.16l.13-.27s0-.09,0-.14l-.16-.32v-.54l-.18-.18-.18-.54-.18-.73-.18-.36-.36.18-.54.36h-.36l-.36-.18.18-.73-.18-.54-.36-.54v-.18h-.36l-.36-.36-.18-.36v-.36l-.18-.18-.18-.36h-.54V127l-.18.36-.18-.18v.18h-.36v.18h-.36l-.54.18v.36l-.18.36-.73.36-.54.54-.36.36-.54.36v.18l-.18.18-.54.18h-.18l-.18.36.18.73v.36l-.18.54v.91h-.18l-.18.36.18.18-.54.18-.18.36-.18.18-.54-.54a3.36,3.36,0,0,0-.36-1.27l-.18-.18-.18-.54-.18-.73v-.36l-.54-.73c-.18-.54-.18-1.09-.36-1.63v-.73l-.18-.54-.73.36h-.36l-.73-.73.18-.18-.18-.18-.54-.54-.36-.18-.18-.36-.36-.36-.91.18h-1.63c-.36-.18-.91-.18-1.45-.36h-.54l-.18-.73-.18-.18-.36.18-.54.36-.54-.18-.54-.36-.54-.18-.36-.54-.36-.73-.36.18-.36-.18-.18.18h-.36l.18.18v.18c.18.36.18.54.36.91l.18.18v.18l.36.18v.54h.18l.18-.54h.18l.18.18v.36l-.18.36.18.18v.18h1.09l1.09-1.09.18-.18v.73l.18.36.36.18h.36l.36.18c.18.18.18.36.36.54h.18V127c0,.18-.18.36-.18.54l-.18.18-.18.36h-.18l-.18.18V129h-.18l-.36.18v.18l-.18.18h-.36l-.18.18V130l-.18.18h-.36l-.36.18h-.18l-.36.18-.18.18v.18l-.54.18-.73.18-.36.36h-.36l-.36.18-.36.18h-.54l-.18.18h-.18v.18H136l-.18-.36v-.54l-.18-.36-.18-.18h.18v-.73l-.18-.18v-.18l-.18-.18-.18-.36-.18-.36-.36-.36h-.18L134,128v-.73l-.36-.54-.18-.18-.36-.18L133,126v-.18l-.18-.36-.18-.18-.18-.36c-.18-.36-.36-.54-.54-.91h-.18v-.73l-.18.18-.18.36-.18.36-.18.18c-.18,0-.18-.18-.36-.36l-.36-.91.18.54.18.54.36.91.18.36h.18l.54.54-.18.18v.36l.54.54v.18l.18.54-.18.18v.54l.18.73c.18.18.36.18.54.36l.36.54.18.54.36.18.91.54.73.73.18.18v.36l.18.18c.18,0,.18.18.36.18l.18.18.18.18h.18l.54-.18h.54l.36-.18h.18l.18-.18h.73l.54-.18H140v.73l-.18.18-.18.54a8.86,8.86,0,0,1-.54,1.27l-.36.73c-.36.36-.73.91-1.09,1.27l-.54.36-.73.54-.54.36-.54.54-.18.18-.18.18-.36.18-.18.18h-.18v.36l-.18.18-.18.36-.18.18-.18.54v.36l.36.18v.18l-.18.36V143l.18.36.18.54.18.18v2.18l-.18.36-.18.36-.36.36-1.09.54-.54.54-.18.18-.36.36-.18.18v.36l.18.36.18.36v.91l.18.18v.18l-.18.18-1.09.54-.18.18v.18H130V153l-.18.36v.54l-.18.18c0,.18-.18.18-.36.36l-.18.36-.18.36-.36.36c-.36.18-.54.54-.91.91l-.36.36-.54.18h-.18v.18h-.36l-.18.18-.54-.18H125l-.54.18-.36.18-.36.18h-.18l-.18-.18h-.18l-.18-.36v-.54l-.18-.36h-.18v-.54c-.36-.54-.54-1.27-.91-1.81l-.36-.36-.18-.36-.18-.54-.18-.36-.18-.91v-1.09l-.18-.18-.18-.36-.18-.73-.18-.36-.36-.54v-1.27l.18-.54v-.18l.18-.54.18-.18.36-.36.18-.18v-.73l-.18-.18c0-.18-.18-.36-.18-.54v-.18l.18-.18c0-.36-.18-.54-.18-.91l-.18-.36v-.36l-.18-.36-.36-.54-.54-.54-.36-.36-.36-.54v-.18l.18-.18c0-.18.18-.54.18-.73h-.18l.18-.54V137l-.18-.36h-.18l-.18-.18h-.18v-.18l-.54.18h-.18l-.18.18h-.36l-.18-.36-.18-.36-.36-.36h-1.27l-.36.18-.73.36-.36.18-.54.18-.36-.18h-.18l-.54-.18h-.91c-.36.18-.54.18-.91.36h-.36l-.54-.18-.54-.36-.36-.36-.36-.36h-.18L107,135l-.18-.36v-.54l-.18-.36-.18-.18h-.18l-.18-.18V133h-.18l-.18-.18h-.18l-.18-.18-.18-.18v-.73l-.18-.36-.18-.18h.36l.18-.36V130l.18-.18v-1.45l-.18-.18-.18-.18v-.54l.18-.18v-.36l.18-.36.36-.36h.18l.18-.36v-.36l.18-.54.36-.18.36-.54.18-.18h.54l.36-.36.18-.18.54-.54-.18-.73.18-.54v-.36l.36-.36.54-.36.36-.18.18-.73.18-.36H111l.36.18h.54l.54.18h.18l.54-.36.54-.18.36-.18.54-.18a5,5,0,0,1,1.63-.18l.18.18.54-.18h.54l.18-.18h.36l.54-.18H119v.36l.36-.18v.18l-.18.36v.36l.18.18V120l-.36.36.18.36h.18v.18l.36.18.54.18h.18l.36.18.73.18.18.54.54.18.73.18.73.18.18-.18.18-.18-.18-.54v-.18l.36-.36h.36l.73.18.18.18h.18l.18.18h.54V122h.73a2.62,2.62,0,0,1,1.27.36h.73l.18-.18H130l.18.36.18-.18.36.18h.36l.18-.18.18-.18.18-.36.18-.36v-.18l.18-.54.18-.36v-.54l.18-.18-.18-.36.18-.18H132l-.36-.18-.36.36h-.73l-.36-.36h-.54l-.18.18h-.36l-.54-.36h-.54l-.36-.54-.36-.36.18-.54-.36-.36.54-.54h.73l.36-.54h.91l.54-.36h2l.91.54.73.18.54-.18h.36l.54-.36v-.36l-.18-.54-.36-.18h-.36l-.18-.18-.73-.54-.54-.18-.36-.36.36-.18.36-.54-.36-.36.73-.36v-.18l-.54.18h-.36l-.36.18h-.54l-.36.36v.36l.36.36h.54l-.18.18-.54.18-.73.36-.36-.18.18-.36-.54-.18v-.18h.36l-.18-.18-.73-.18v-.36l-.54.18-.18.36-.36.54v.18l-.18.18h-.18l-.18.91-.18.36-.18.54.18.36V116l.36.18-.18.18h-.54a2.5,2.5,0,0,0-.73.54l-.18-.36v-.18h-.54l-.54.18.36.36-.18.18h-.36l-.18-.36-.18.18.18.36.18.36-.18.18.36.36.18.18v.36l-.54-.18.18.36H125l.18.54h-.36l-.36-.36-.18-.54v-.36a2.5,2.5,0,0,0-.54-.73v-.36l-.36-.18v-1.27h-.18l-.18-.18c-.18-.18-.54-.18-.73-.36l-.36-.18-.54-.18-.36-.54h.18l-.18-.36v-.18l-.36-.18-.18.36-.18-.18v-.18h.18l-.36-.18-.36.18V114l.18.36.54.36.18.54.18.18h-.36l-.36-.36-.54-.36-.36-.36-.18-.73h-.18l-.36-.18-.18.18-.36.36h-.18l-.54.36-1.09-.18-.73.18v.73l-.54.36-.73.18v.18l-.36.36-.18.54.18.36-.36.36-.18.36-.36.18-.36.54h-1.09l-.36.18-.18.18h-.18l-.18-.18-.18-.36-.54-.18-.18.18h-.36v-.91H109l-.18-.18v-.36l.18-.18v-.18l.18-.36v-.36l-.18-.18v-.73l-.18-.36.73-.54.54.18h.73l.54.18h1.27l.18-.36.18-1.45-.54-.73-.36-.36-.73-.36v-.54l.73-.18.91.18-.18-.91.54.36,1.09-.54.16-.65-.16.11h-.73l-.91.18-.18-.18-.36.36h-.54l-.36.36-.18-.18.73-.91.36-.18-.73-.18-.18-.36.54-.18-.36-.36.18-.54h.73v-.54l-.36-.54-.54-.18-.18-.18.18-.36-.18-.18-.36.36-.18-.91-.18-.54.36-.91.36-.73h.91l-.54,1.09.54-.18h.54l-.18.73-.54.91h.54l.54,1.09.36.18.36.91.54.54.54.18V108l-.18.18.18.36-.1.07a5.25,5.25,0,0,0,.64-.25l.18-.18.36-1.27.73-.36h.36l.18-.18h.36l.18.18.36-.36-.18-.36v-.54l-.18-.54v-1.09l.36-.54h.36l.18-.18.36-.18v.54l-.18.36v.18l.36.18-.18.36-.18-.18-.36.73.18.36v.36l.54.18v.36l.36-.36.36-.18.54.36.18.36.36-.18c.54-.18.91-.54,1.45-.73l.54.18v.18h.54l.18-.36.73-.36-.18-.73v-.73l.36-.54h.36l.36.73h.36c0-.36.18-.91.18-1.27l-.18.18-.36-.36v-.54l.68-.34-.39-.66-.47.09-.36-.54-.54-.36.18-1.09-.06-.29L123.62,97l-.83.83-.36,1.45.36.73.54.54-.54,1.09-.54.18-.18,1.63-.36.91h-.54l-.36.73h-.54l-.18-.91-.36-1.09-.36-1.27h-.18l-1.09,1.09-.73.18-.73-.54-.18-1.09-.18-2.36.54-.73,1.27-.91,1.09-1.27c.65-1.31,1.31-2.47,2-3.75C116,83,110.26,71,110.26,65.06a19.72,19.72,0,0,1,2.34-8.81L109,54.38l-6.66,3.54.81.9-.91,1.45-4.72.54.36.73,1.81-.36,1.45,1.27.91-1.09.36,1.27-.54,2,1.27-1.27,2.54-1.45,1.81.73.36,1.45-2,2.36-.36.73-1.63.54,1.09.18-1.09,3.81v2.72l.54,1.45-.73.18-.91.73.91,1.09.18,1.81-.54.18.73,1.63-1.09.18.54.73-.18.54-.73.36h-.73l.54,1.09v.73l-1.09-.73-.18.36.73.54.73.91.18,1.27-.91.36c-.36-.54-.73-.91-1.09-1.45l.18,1.09-.54.73h2l-1.27,1.27-1.45,1.09-1.45.54h-.54l-.54.54-.73,1.45L95.39,94H95c-.54.18-.91.36-1.45.54l-.36.73v.91l-.18.73-.91.91.18.91c-.18.54-.36,1.27-.54,1.81H91l-.73-.91H89.22l-.54-.54L88.31,98l-.91-1.45-.18-.73V94.75l-.73-1.09.18-.91-.36-.36.54-1.63.73-.54.18-.54.18-1.09c-.36.18-.54.54-.91.73l-.54.18L86,88.94V87.85l.18-.73h.54l1.09.73A10.37,10.37,0,0,1,86.5,86.4l-.54.18-.36-.36.54-1.45L85.77,84l-1.09-3.27L84,80v-.91l-1.27-1.27-1.09-.18a12,12,0,0,0-2.54.18l-.54-.73-.91-1.45L78.87,75,80,74.79l-2.18-.54-1.09-.91v-.91c1.27-.91,2.54-1.63,3.81-2.54l.06-.38L79,70.33a1.44,1.44,0,0,1-.49.13l-.18,0h0a1.43,1.43,0,0,1-.67-.14l-1.76-.92-1.2.3.73.36-.36.54.36,1.27-.54.91-.73.73-.18.91-.73.73v.54h.91v.54l-1.27,1.27L71.61,77l-1.45.36-.73-.18L68.53,77V75.88l.91-.54-.18-1.63.36-.18,1.27,1.09L70.16,73l-.91-.54.36-.91.91-.54.18-1.09L70,68.8l-.18-1.45,1.45.18.36.36.37-.55-1.56-.82-1,.1-.91-1.09h0l-1.33-.7.43,1.07a10,10,0,0,0,1.63,1.27l.36,2,.73.91-.73.73-.91,2L67.8,73l-1.09-.36-.54-1.09v-.91l.36-.73h-.91l-.54-1.27-.36-1.27.36-1.27.36-.91L66,65l-.18-.73.24,0-17.31-9.1V87.67l.36.18L50,89.12l.91-.91V89.3l.54-.18.18-.36h.54l.54.36,1.27.54.73.18h.54l.73.73-.73.73.91.36,1.45-.18h.54l.54.73.54-.73-.54-.54.54-.54h.54l.36-.18.36.36.54.73.54-.18.91.54.73-.18H64v-.91l.36-.18.73.54v1.27l.36-1.09h.36L66,89.67l-.54-.91-.54-.54V86.58l.54-1.09H66l.54.73L67.26,88l-.36.73.91.36v1.45l.73-1.09.54.91-.18,1.09.54.91.54-.91.36-1.27V88.58l.73.18.73.18.73.73v.73l-.36.73.18.73v.73l-.91.91-.73.18-.54-.36-.18.54-.54,1.09-.18.54-.54.73H68l-.36.54v.73l-.54.18-.54.91L66,99.83l-.18.73v1.09l.73.18.18.91.36.73.73-.18.91.36.36.54.36.36.54.18.54.36H72v.73l.18.91.18.73.73.73.36-.18.36-.91-.18-1.27-.36-.54.73-.36.54-.54.36-.54v-.54l-.36-.73-.54-.73.54-1.09-.18-.91-.18-1.63.36-.36.91.36.36.36.36-.36.54.36.54.54.18.36h.91v.91l.18,1.27.54.18.36.54.73-.54.36-1.09.36-.54.36.91a15,15,0,0,1,1.27,2.36l-.18.54.73.54.54.73.73.18.36.18.18.73,1.09-.18.18.36v.91c-.18.18-.54.36-.73.54l-.91.36-.73.73-.91.18-1.09-.18H80.51l-.36.54-.73.36-.73,1.09-.54.73.36-.18.73-.91,1.09-.73h.73l.36.36-.54.54v.91l.18.54.73.36-.18.36.54-.91v.54l.36.18-.54.54-1.09.36-.54.36-.54.54h-.36v-.54l.91-.54H79.06v.18l-.54.36a2.58,2.58,0,0,0-1.09.36c-.18.18-.18.36-.36.54v.36l.18.36h.18v-.18l.18.18V116l-.36.18h-.18l-.36.18h-.18l.18.18-.73.18h-.36l-.18.18h.18l-.18.54-.36.54v-.18h-.18l-.18-.18.18.36.18.18v.18a1.38,1.38,0,0,1-.36.73v.18h.18V120l-.36.54-.54.18-.36.36h-.18l-.18.18v.18l-.54.36-.36.36-.18.36v.73l.18.54.18.36v.18l.18.73v.54l-.18.36h-.36v-.18L72,125.6c-.18-.36-.36-.54-.54-.91v-.18l.18-.36-.18-.36-.36-.54h-.18l-.54.18-.18-.36-.36-.18H68.35l.18.18v.73h-.36L68,124h-.36l-.36-.36H66.9l-.36-.18h-.36l-.36.18-.54.36-.54.18-.36.36-.18.18v.54l.18.18-.18.54v1.63l.18.18.18.36.36.36v.36l.36.18.54.18.18.18.36-.18h.36c.18,0,.54-.18.73-.18H68l.18-.36v-.54l.36-.18.54-.18h.73L70,128v.18l-.36.36-.18.36.18.18c0,.36-.18.54-.18.73l-.18-.18v.73l-.18.18h-.18l-.18.18.18.18h.18l.36-.18h1.63l.18.18.18.36h.18l.18.18v.36l-.18.18V133l-.18.18v.18l.18.36.54.54v.18h.18l.18.18h.18l.18-.18.36-.18.18-.18h.91l.18.18.18.18h.18l.36-.54h.18v-.18l.18-.36.36-.18h.36V133h.36c.18-.18.36-.18.54-.36l.18-.18h.18l.18.18-.18.18V133h-.36l.18.18v.18l-.18.36.18.36h.18l.18-.36-.18-.18v-.36l.54-.18v-.18l.18-.18v.54h.36l.36.36v.18h1.09l.36.18h.36l.36-.18v-.18H82.5l-.36.18.18.18h.36l.36.18v.36h.18c.18.18.36.18.54.36l.36.36v.18h.18c.18,0,.36.18.54.36l.73.18v-.18H86c.36.18.73.18,1.09.36l.54.36v.18h.18l.18.36.36.91h.18v.36l-.36.36.18.18h.91v.54l.36-.36.73.18.91.36.18.36v.36l.54-.18.91.18h.73l.73.36.73.54.36.18h.36l.18.18a1.88,1.88,0,0,0,.18.73l-.18.91-.18.36-.73.73-.36.54-.36.36h-.18l-.18.36v.91c0,.36-.18.73-.18,1.09l-.18.18v.73l-.54.73v.54l-.36.18-.18.36h-.54l-.73.18-.36.18-.54.18-.54.36-.36.54v.73l-.18.54-.18.36-.36.36-.54,1.09-.36.54-.36.36-.18.54-.36.36-.18.36-.54.36-.36-.18h-.36l-.54-.18H84.5l-.36-.36V157l.73.54v.36l.36.36v.36l-.54.91-.73.36-1.09.18h-.54l.18.36-.18.54.18.36-.36.18-.54.18-.54-.18-.18.18v.73l.36.18.36-.18.18.36-.54.18-.36.36v.73l-.18.36h-.54l-.36.36-.18.54v.54l.54.18-.18.73-.54.36-.36.91-.54.36-.18.36.18.91.27.41.27.14,0,0,28.81-15.2A1.62,1.62,0,0,1,110,155l30.3,15.82,30.64-15.57v-12h-.59l-.54-.18-.54-.18h-.54l-.91-.18v-.18h-.54l.36-.54h.54l.36.18h.18l1.27.18.18-.18.78.16v-1.92l-.05-.05-.54.18-.18-.18h-.73v-.73l-.18-.18-.18-.36v-.91l.36-.18.36.18.36-.18v-.54h.36l.41-.14V127.1l-.05-.05ZM121.15,115.8h.36l.18.18-.18.18c.36,0,.54.18.91.36l.36.36v.18l-.18.18-.36-.36-.36-.18-.18.36.36.18v.36h-.18l-.18.54h-.18V118l.18-.36.18-.18a.91.91,0,0,1-.18-.36.91.91,0,0,0-.18-.36h-.18l-.18-.36-.18-.73Zm-12.34-9.62,1.09-1.09h.36l.54.73-.18.54v.54l-.36.73-.91.54-.73-.18.36-.91Zm-45-29.76.54,1.09V78.6L64.17,80l-.91.18-.54-.36V78.78l-.91.18V77.33h.54l.73-.73.73.18Zm-3.45-5.26V70.07l.91.36,1.45.91.36,1.27.18.91-.91-.18-.91-.73-1.09-.18.54-.73Zm-5.63,6.35.54-.54,1.45.73L57.64,79h.73l-.73-2,.54-.73.54.18.18,1.09.18.73.36-.54.54.18V79l-.36.91L58,80.23l-1.27.91H56v-.54l1.09-.91-2.36.18L54,79.5Zm8,11.43-.91.18v.18l-.18.54-.91-.18-.91-.36h-.54l-.91.54c-.73.18-1.45.18-2.18.36l-.36-.73-.73-.36-.36.18-.54-1.09.36-.18.73-.18H56l.73-.18-.91-.36-1.09.18H54l-.18-.54,1.09-.54-.73.18-.91-.36.36-1.27.36-.73,1.27-1.09.54.36-.18.73,1.09-.54.73.91.54-.91.73.36.36,1.63.18-.73-.36-1.81.36-.18.54.36.54.73.54,2.72c.54.54,1.27.91,1.81,1.45ZM64.9,86l-.91.54-.54-.18-.36-.54-1.27-1.27V84l1.09.18-.54-1.09.54-.91.73.18.91-.18.18.54-.54.91.91.91Zm-.36-9.62.54-1.09,1.09.18.54.73h.91L68,77l-.18.73.54.54.18.36h.73l.73.18.73-.36,1.09-.18.91.18.54.73.18.91-.36.54-.73.36-.73-.18-1.45.36H69.07L68.17,81l-1.27-.54-.18-1.09V78.23l-.54-.91-1.09-.18Zm2.72,7.08-.54.36-.54,1.27h-.54l-.36-1.45v-.91l.18-.73L66,81.5h1.09l.91.36ZM82.14,93.84l-.91,1.45-.54-.54L80,93.48l-.73.18v.73l.54.73.73.54.18.36.36,1.09-.18.73-.73-.36-1.27-.91c.36.54.91,1.09,1.27,1.63v.36l-1.45-.36-1.09-.73-.54-.54.18-.36c-.54-.36-.91-.73-1.45-1.09v.36L74.34,96,74,95.66v-.91h.91L76,94.57l-.18-.36.18-.54.73-1.27-.18-.54-.18-.54-.73-.73L74.52,90l.36-.36-.54-.91H74l-.36-.54-.18.36-.91.18-1.81-.36L69.62,88l-.91-.18-.36-.54.73-.73h-.73l-.18-1.63.36-1.45.54-.73,1.27-.54L70,83.32l.36,1.09.36-1.27L72,82.41l.91,1.81v1.09L74,84.77l.54-.73,1.09.91.73.73v.73l.91-.36.54,1.09,1.27.54.36.54.36,1.45-.91.73,1.27.91.73.36.73,1.27h.73Zm-6,34.66H75.06l-.18-.18h-.36l-.18-.18-.18-.36h-.36l-.54-.18-.18-.18h-.73l-.18-.18.18-.36H71.8l-.36.36h-.18v.18h-.36l.18-.18V127l.18-.18.18-.18H72.7l.54.18.18.18H74c.36.18.54.54.91.73h.18l.36.18v.18h.36l.36.18Zm10.71-16.33h-.18l-.36-.18.18-.54-.18-.18-.54.73h-.36l.36-.36-.54-.18H83.77v-.18l.36-.18L84,110.9l.36-.54.54-1.27.36-.54.36-.36h.18l-.18.18a8.81,8.81,0,0,1-.54,1.27l.36-.18.36.18-.18.36.36.18.18-.18.54.18-.18.54.36-.18v.36l.18.54Zm16.88-15.42-1.45-.36.54-.73-1.09-.54.91-.18v-.36l-1.09-.36.36-.73.73-.18.73.91.73-.73.73.36.91-.54h.91l-.18.73.54.91-.73.91a16,16,0,0,1-1.81,1.09ZM139.12,147v.18l-.18-.36-.18.18.18.36v.18l-.18.18v.36a15.33,15.33,0,0,0-.91,3.08l-.18.73-.36.18-.36.18c-.18-.18-.54-.18-.73-.36l-.18-.36V151l-.18-.36v-.73l.18-.36.54-.18V149l-.18-.18-.18-.36v-.54l.18-.36v-.36h.36l.18-.18h.18l.36-.36.18-.36.18-.18v-.18H138l.36-.36v-.36l.18-.18.18.18.18.18v1.27l.18.18Zm27.95-6.35v.73h-.54l-.36-.36-.73-.36-.18-.36-.36-.36-.18-.36-.36-.73-.36-.36-.18-.36-.18-.36-.54-.36-.18-.36-.36-.36-.54-.54v-.18c.36,0,.73.18,1.09.18l.36.54.36.36.36.18.54.54h.54l.36.36.36.36h.18l-.18.36.36.18h.18v.36l.18.36h.36l.18.36Z"/></g></g></svg>