<svg xmlns="http://www.w3.org/2000/svg" viewBox="0 0 219.64 219.64"><defs><style>.cls-1{fill:#197375;}</style></defs><title>3D</title><g id="Layer_2" data-name="Layer 2"><g id="Background"><g id="_Group_" data-name="&lt;Group&gt;"><polygon class="cls-1" points="153.33 119.67 152.25 121.68 151.21 123.72 149.84 126.14 148.99 127.47 147.43 128.17 146.64 127.56 146.93 126.86 146.67 126.43 147.14 125.75 147.74 124.92 148.3 124.36 148.5 123.57 148.33 122.56 148.71 122.09 148.88 121.45 149.87 120.9 150.92 120.02 151.82 118.92 152.17 118.28 152.43 118.28 153.22 116.85 153.33 119.67"/><polygon class="cls-1" points="138.55 83.31 136.95 81.06 136.51 80.32 137.73 79.92 138.41 79.24 138.91 79.36 139.09 80.28 138.98 81.84 138.86 83.25 138.55 83.31"/><polygon class="cls-1" points="135.46 76.62 136.24 75.98 136.24 76.25 136 76.53 135.9 76.86 136.04 77.02 136.24 77.34 135.99 77.55 135.6 77.73 135.17 78.01 134.1 78.01 133.86 77.73 134.1 77.23 134.81 76.99 135.46 76.62"/><polygon class="cls-1" points="121.59 75.42 122.59 75.05 122.68 75.67 122.88 76.14 122.44 76.62 121.83 76.41 120.65 75.98 120.76 75.54 121.59 75.42"/><polygon class="cls-1" points="117.17 76.72 118.25 76.14 119.5 76.47 118.67 78.89 119.42 79.55 122.51 80.73 123.76 81.64 126.02 82.39 127.02 81.81 126.77 80.73 127.35 79.89 130.43 80.56 133.86 80.89 135.27 80.73 136.95 81.06 139.95 86.15 141.04 87.82 142.04 88.49 143.12 91.41 144.37 92.33 145.54 94.24 147.13 95.5 149.05 97.25 149.72 98.17 150.55 97.42 151.72 97.25 152.47 96.32 154.47 94.91 154.47 98.25 152.72 102.92 149.72 107.35 146.38 111.6 145.63 114.44 146.13 117.69 146.29 121.53 144.12 123.45 141.95 124.79 140.62 126.13 140.96 128.21 140.37 129.29 137.86 130.55 137.53 132.05 135.86 133.38 133.03 135.72 130.43 136.97 127.85 138.06 126.26 137.22 124.93 136.39 125.1 135.72 124.01 133.64 123.35 133.55 122.51 130.04 120.26 126.63 120.51 124.37 122.42 121.95 121.59 120.11 121.92 118.86 120.59 116.77 117.75 113.02 118.75 109.35 117.66 107.68 114.83 107.76 113.91 107.35 112.74 105.67 107.82 106.6 106.73 107.18 105.15 106.51 101.23 107.18 97.31 103.59 94.55 101.76 92.3 100.92 93.72 96.32 95.05 93.16 94.64 89.9 95.55 87.73 96.89 86.73 97.14 85.4 98.89 83.81 101.98 82.31 102.9 79.22 104.56 78.22 105.9 76.97 107.07 77.63 108.49 77.97 110.24 77.22 112.24 76.39 115.17 76.39 117.17 76.72"/><polygon class="cls-1" points="117.2 72.38 117.11 72.84 117.11 73.09 116.76 72.82 116.66 72.5 116.87 72.17 117.2 72.38"/><polygon class="cls-1" points="112.64 61.62 113.23 62.09 112.72 62.57 112.94 62.97 112.6 63.27 111.4 63.39 110.23 63.39 109.55 63.73 109.16 63.62 108.48 63.91 109.33 62.91 109.01 62.5 109.2 62.17 109.64 61.96 109.6 61.2 109.99 61.2 110.54 60.78 110.14 60.01 109.51 59.52 109.28 58.67 109.13 57.78 109.39 56.73 111.63 56.56 111.66 57.41 111.57 58.1 111.07 58.47 111 58.98 111.49 59.42 111.53 59.86 111.91 60.3 112.2 60.97 112.64 61.62"/><path class="cls-1" d="M117.25,61.07c0-.27,0-.55,0-.82s-.24-.81-.36-1.21l.57-.63.54-.47.5.73c-.11.23-.21.45-.31.68s-.15.52-.24.78l.41.64,1.15.09.43-.42c.12.18.23.37.35.56l.54.48L121,61l.63-.3c.2-.13.4-.26.59-.4l.29-.19.37.33.59-.14,1-.66-.42-.7c-.06-.37-.11-.74-.17-1.11l.54-.19-.3-.35.42-.76.85-.21,1.18-.43.56-.3c0-.12,0-.24,0-.36l-1.43-.32c-.22.21-.42.43-.64.65l-1.27.08-.45-.66c-.15-.38-.31-.76-.47-1.14.09-.29.19-.59.28-.89l.92-.73c0-.27-.11-.54-.16-.8l-1.09,0-.44.73c-.11.31-.21.62-.31.92l-1,.83L121,55.33l.85.49.45.69L121.1,57c0,.26.05.51.08.76l.27.75-.85.59c-.16.15-.33.28-.5.43l-.82-.12c0-.2,0-.39,0-.59s0-.26.07-.4l-.4-.66c-.17-.32-.34-.63-.52-.94l0-.43-1.13.26c0,.2,0,.4,0,.59l-.84.4-.5-.26-.33-.57c-.06-.23-.12-.45-.19-.68s0-.47-.07-.71.11-.6.16-.89l1-.92.94-1.11.88-.57.91-1c.2-.27.4-.53.59-.81l.48-1.06.75-.94L122,47.9l1-.19h.9c.17.16.34.32.52.47l.44.08q.39,0,.78.12l1.49.11,1,.31.56.44.71.55.9-.62c.2-.14.39-.29.58-.44.2-.48.4-1,.59-1.44l1.7-.49-.58-.69L132,46c.32-.54.65-1.08,1-1.62l-1.34-1.06c0-.55.05-1.09.07-1.63l-1.91-2c-.13-.39-.28-.78-.42-1.17l1.55-.33.8.47c.05-.17.08-.33.12-.5-1-.29-2-.56-3.05-.79l.12.11c0,.24,0,.48-.08.71l-1.6-.06-1.37.5-.93.61c0,.4.09.8.15,1.19l-.76.06-1.6-.41c-.24.32-.49.63-.73.94l-2.86.49-2.27.06-2.35-.38-1.31-.67.64,1.25-1,.41-1.28,1.19-1,1.05L108.86,46c-.38.4-.78.8-1.16,1.19l-1,.67-2.42.38-1-.24-1,.62-1.89.64-1.57.17-1.49.9-1.25.78-.9.76-.86-.44c.09-.28.17-.56.26-.84-.11-.12-.23-.24-.35-.35.23-.37.45-.74.67-1.11l1.4-1.39,1.33-.7,1.34-1.37,1.28-.41,1.95-1.68c.41-.49.82-1,1.22-1.46l.61-.7L105.23,40l-1.6-.14-.9-.3-.38.5-.78-.7c-.18.38-.36.76-.53,1.14l-1,1.13c0,.31.06.6.09.9l.9.53-2.33,1-2.62,1.22-2.27,1.19-2.12,0,.75-1.34.94-1.6-.15-1.22-1.15-.14a54.37,54.37,0,0,0-6.77,4.18l-.63,1-2.48,2.13,2.65-1,1.89-.88,2.45-1.85L90.88,45l-1,1.63-1.48,1.86,2-.52-2.85,3.49c-.21.73-.41,1.46-.62,2.19l-.87,1.54-1.19.05-1.31,0L82.3,54.08c-.37,0-.74.07-1.11.12.14.33.27.68.41,1l-.93,1q-.58.54-1.17,1l1.78.64-1.92.65-1.34,0-.15-.93-1.34.56L74.12,59l-1.63,1.51-1.31,1c0,.06-.07.13-.11.2-.58-.37-1.15-.74-1.71-1.13A55.45,55.45,0,0,0,61.61,82.9a3.5,3.5,0,0,0,.47.25c.42.2.85.38,1.28.55l0,.19c.51,1.1,1,2.19,1.54,3.28l.48,1.91L65.8,92c.38,1,.77,1.92,1.15,2.87l1.6,2.45c.19.62.38,1.24.58,1.86v2l1.68,2.13L72,105.44,74,106.69l1.72,1L77,109.88l1.29.71.57,1.28c0,.75-.08,1.51-.13,2.26l-1,.67c-.11.42-.21.83-.31,1.24l-.67.45c.16.42.32.85.49,1.28.09.89.18,1.77.26,2.66-.12.74-.23,1.48-.35,2.22l-1,.32-1.86-.23.23.63a11.77,11.77,0,0,0-1.77.34,55.82,55.82,0,0,0,96.95-52.38c-.16.51-.31,1-.44,1.52a10.83,10.83,0,0,0-.32,2.6c-.16-.54-.27-1.09-.44-1.64-.1.3-.21.6-.3.9.05.6.11,1.21.16,1.81.15,1.07.29,2.15.44,3.23-.13.88-.25,1.75-.38,2.63l.82,1.58c0,1.28.07,2.56.11,3.84l-.33,2.4c-.26-.78-.52-1.56-.77-2.35-.46-.8-.91-1.61-1.36-2.41l-1.21-2.24c-.44-1-.88-2-1.31-3.07-.38-.38-.74-.77-1.11-1.15l-.81.66-1.15-.39-1.1-1-.11,0-1,.66-1.53.82-2.2.65c-.17-.38-.36-.76-.54-1.15l-.54.06c-.3.36-.59.73-.88,1.09h-.66c-.33-.17-.66-.36-1-.54l-.67.06c-.16-.25-.33-.48-.49-.72l-1.2-1.2-1,.55c.08.36.15.72.22,1.09L150,80.9l.77.93.49.6v-.77a4.56,4.56,0,0,0,.39-.27c.09.31.17.62.27.93s0,.48.06.72l.54.22.93-.5.55-1c.17-.54.33-1.09.5-1.64.23.55.47,1.1.7,1.64l.72.5.88-.17,1.14.82c-.07.39-.15.77-.22,1.15s-.36.91-.55,1.37l.39,1.15-.66.55c-.09.44-.19.88-.28,1.32l-.71.65-1,1c0,.38-.07.77-.11,1.15L154,92l-2.3,2.19-2.85,2.08-1.65-4c-.42-.44-.84-.88-1.27-1.31-.2-.37-.39-.74-.6-1.1l-1.09-.44-.82-1.2c-.28-.57-.55-1.13-.82-1.7l-.71-.44-1-1.42c-.38-.45-.77-.91-1.14-1.37l-.55-.38-.12-1.26.21-.84c-.12-.46-.24-.93-.37-1.39,0,0,0,0,0,0l-.49-.12c-.07-.52-.12-1-.19-1.55,0-.76,0-1.51.05-2.27,0-.28.08-.57.13-.86l-1.54-.11c-.16.23-.32.44-.49.67l-1.48.21-.71-.54c-.13.21-.26.43-.38.65l-1.05.27-1.2-1.42-1.15-1.1c0-.36-.06-.72-.11-1.09l.79-.36.53-.24,1.14-.6c.37-.11.74-.23,1.11-.33.31-.28.61-.55.93-.82l1.53.1,1.31.5,1.27-.28.92-.38v-1L138.69,68l-1.54-.71-1.48-.11-1,.76-1.21-.11L131.84,69l-1.26.55c.26.51.52,1,.77,1.53l-.37.38-.83.35h-.81l-.89.07-.64.73c.07.19.15.37.23.55s.23.4.35.6l.86.58c-.09.19-.17.38-.26.56l-1.39-.61-.36-.67-1-.15-.79-.59-.51-.54c.06-.23.13-.46.19-.69l-.57-.84-1.08-.24-.32-.4-.61-.22-.52-.41c-.14-.2-.3-.4-.45-.6l-.42-.55-.54-.38c-.21,0-.43.09-.64.15a3.25,3.25,0,0,0-.23.29l.19.38-.12.25.37.65.61.28c.14.28.28.54.42.81l.48.61.76.23.37,0,.69.51.68.48c.18.2.37.39.55.57l-.3.24-.23-.33-.53-.35c-.06.08-.1.16-.16.24s-.12.19-.19.28l.32.32.22.37-.17.36-.41.56-.34.34c-.08-.13-.16-.27-.25-.4.08-.14.14-.28.22-.42s0-.4,0-.59c-.13-.23-.27-.45-.4-.67l-.63-.5-.85-.46-1-.44-.69-.66c-.25-.27-.5-.54-.76-.8l-.27-.63c-.2-.1-.4-.18-.61-.27l-1.14.34-1.57.59L114,70c-.32.09-.64.16-1,.24l-.12.61-.59.9-1.13.38-.85,1c-.05.29-.11.58-.16.87l.33.88-.45.47-.78.54-.45.29-1.93,0-.87.4-.43-.26c0-.28,0-.56,0-.85l-1-.25c-.18-.19-.36-.37-.55-.55s-.2-.66-.3-1c.09-.31.17-.62.26-.93l-.12-1,.92-1.21.66-.84,1.15-.12,1.91.38,1.25-.05.5-.56.21-1.4.12-.49-.42-.42c-.06-.25-.11-.49-.17-.74l-1.2-.45c-.13-.13-.24-.26-.36-.4l.78-.39.9.32.44-.16c0-.18.1-.36.14-.54l1.2.14c0-.11,0-.22.08-.33.27-.16.54-.32.82-.47,0-.19.05-.38.07-.57L114,63l.64-.54c.15-.26.31-.52.47-.78l.54-.37h.9ZM109.82,0A109.82,109.82,0,1,1,0,109.82,109.82,109.82,0,0,1,109.82,0Zm48.06,160.07-7-13.21h0a3.47,3.47,0,0,0-4.71-1.41A62.73,62.73,0,0,1,87,34.77a3.49,3.49,0,0,0-3.29-6.16A69.72,69.72,0,0,0,96.29,156.82a71.56,71.56,0,0,0,15.12,2.84v14c-15.5.34-27.3,2.13-27.3,4.3v9.18c0,2.41,14.66,4.36,32.76,4.36s32.77-1.95,32.77-4.36v-9.18c0-2.16-11.82-3.95-27.31-4.3v-14a69.74,69.74,0,0,0,19.61-4.55l5.61,10.52Z"/><polygon class="cls-1" points="107.14 51.99 106.06 52.28 104.9 52.14 104.4 51.73 104.78 51.12 104.49 50.6 105.01 50.16 106.09 50.3 107.08 50.42 107.89 50.48 108.36 51.61 107.14 51.99"/><polygon class="cls-1" points="108.67 59.32 109.13 60.18 108.78 60.59 108.53 61.31 108.06 61.96 107.39 62.15 106.34 62.42 106.03 62.29 106.11 61.69 106.45 61.42 106.51 61.08 106.82 60.85 106.91 60.16 107.4 59.97 107.87 59.19 108.67 59.32"/></g></g></g></svg>