<svg xmlns="http://www.w3.org/2000/svg" viewBox="0 0 70.2 70.2"><defs><style>.cls-1{fill:#197375;}</style></defs><title>Call</title><g id="Layer_2" data-name="Layer 2"><g id="Background"><path class="cls-1" d="M46,41.47c1.43.66,6.91,3.29,8,3.84a5.42,5.42,0,0,1-1.39,4.46c-1.61,1.72-5,2.78-7.24,2.78a5.25,5.25,0,0,1-1.1-.11L44,52.37c-2.82-.8-10.28-2.85-15.14-7.42-5.38-5-9.54-10.09-11.19-13.68s-1.46-5.67-1.43-6.33c.15-1.24.69-5.3,3.18-6.87.26-.18.69-.4.66-.44h2.82c.55,1.24,3.14,7.35,3.36,7.9s.22.73.15.84c-.8,1.06-2.49,3-2.45,3a3.22,3.22,0,0,0-.48,4.17A35.78,35.78,0,0,0,29.52,41a29.85,29.85,0,0,0,8.85,5.45,4.12,4.12,0,0,0,5-1.72C43.93,44.07,45.39,42.24,46,41.47Z"/><path class="cls-1" d="M46,41.47c-.59.77-2,2.6-2.56,3.29a4.12,4.12,0,0,1-5,1.72A29.86,29.86,0,0,1,29.52,41a35.77,35.77,0,0,1-6.07-7.5,3.22,3.22,0,0,1,.48-4.17s1.65-1.94,2.45-3c.07-.11.11-.29-.15-.84s-2.82-6.66-3.36-7.9H20.05s-.4.26-.66.44c-2.49,1.57-3,5.63-3.18,6.87,0,.66-.22,2.67,1.43,6.33S23.45,40,28.83,44.95c4.86,4.57,12.32,6.62,15.14,7.42l.29.07a5.24,5.24,0,0,0,1.1.11c2.23,0,5.63-1.06,7.24-2.78A5.42,5.42,0,0,0,54,45.31C52.89,44.76,47.4,42.13,46,41.47Z"/><path class="cls-1" d="M35.1,0A35.1,35.1,0,1,0,70.2,35.1,35.1,35.1,0,0,0,35.1,0ZM55.52,52.48c-2.49,2.67-7,4.1-10.17,4.1a7.7,7.7,0,0,1-2.16-.29l-.29-.07c-3.07-.84-11.23-3.11-16.82-8.34C20.27,42.46,15.88,37,14,32.92c-2.12-4.61-1.86-7.42-1.79-8.37.22-2.12,1.1-7.35,5-9.87a5.83,5.83,0,0,1,2.82-1l3.66,0a3.84,3.84,0,0,1,2.78,2.23c.4,1,3.25,7.57,3.44,8.08a4.6,4.6,0,0,1-.37,4.86c-.69.84-1.9,2.27-2.49,2.93A31.28,31.28,0,0,0,32.19,38a25.29,25.29,0,0,0,7.46,4.64.93.93,0,0,0,.26.07c0-.07.11-.15.15-.22l.18-.22L43,38.77a3.53,3.53,0,0,1,2.82-1.39,4.08,4.08,0,0,1,1.72.4c1.32.59,7.09,3.4,8.19,3.91a3.12,3.12,0,0,1,2.19,2.89l0,.29A9.32,9.32,0,0,1,55.52,52.48Z"/></g></g></svg>