<svg xmlns="http://www.w3.org/2000/svg" viewBox="0 0 78.68 78.68"><defs><style>.cls-1{fill:none;stroke:#eee;stroke-miterlimit:10;stroke-width:6.38px;}.cls-2{fill:#eee;}</style></defs><title>Home</title><g id="Layer_2" data-name="Layer 2"><g id="Background"><circle class="cls-1" cx="39.34" cy="39.34" r="36.15"/><path class="cls-2" d="M63.35,34.67,40.61,15.57a2,2,0,0,0-2.6,0L15.37,34.67A1.9,1.9,0,0,0,14.74,37a1.93,1.93,0,0,0,1.91,1.33h6.08V57.24a2.11,2.11,0,0,0,2.08,2.08H53.92A2.11,2.11,0,0,0,56,57.24v-19h6.08A2,2,0,0,0,64,36.93,2.13,2.13,0,0,0,63.35,34.67ZM26.77,55.22V36.29a2.11,2.11,0,0,0-2.08-2.08H22.32l17-14.35,17,14.41H53.92a2.11,2.11,0,0,0-2.08,2.08V55.28Z"/></g></g></svg>