<svg xmlns="http://www.w3.org/2000/svg" viewBox="0 0 220 220"><defs><style>.cls-1{fill:#197375;}</style></defs><title>Link Performance</title><g id="Layer_2" data-name="Layer 2"><g id="Background"><polygon class="cls-1" points="73.34 74.79 50.69 74.79 62.01 86.11 73.34 74.79"/><rect class="cls-1" x="136.15" y="83.11" width="10.55" height="70.27" rx="0.81" ry="0.81"/><rect class="cls-1" x="162.59" y="66.61" width="10.58" height="86.78" rx="0.99" ry="0.99"/><path class="cls-1" d="M110,0A110,110,0,1,0,220,110,110,110,0,0,0,110,0ZM41.57,71a2.74,2.74,0,0,1,2.53-1.69H79.94A2.73,2.73,0,0,1,81.87,74L64.6,91.26v27a2.73,2.73,0,0,1-5.47,0V91l-17-17A2.73,2.73,0,0,1,41.57,71Zm31.19,81.6a6.26,6.26,0,0,1-6.25,6.26h-9a6.26,6.26,0,0,1-6.25-6.26V133.43a6.26,6.26,0,0,1,6.25-6.26h9a6.26,6.26,0,0,1,6.25,6.26Zm26.47,0a6.3,6.3,0,0,1-6.29,6.29H84a6.29,6.29,0,0,1-6.29-6.29V116.81A6.29,6.29,0,0,1,84,110.52h8.9a6.29,6.29,0,0,1,6.29,6.29Zm26.46,0a6.3,6.3,0,0,1-6.3,6.3h-8.89a6.31,6.31,0,0,1-6.3-6.3V100.35a6.31,6.31,0,0,1,6.3-6.3h8.89a6.3,6.3,0,0,1,6.3,6.3Zm26.47,0a6.28,6.28,0,0,1-6.28,6.27H137a6.28,6.28,0,0,1-6.28-6.28V83.92A6.28,6.28,0,0,1,137,77.65h8.93a6.28,6.28,0,0,1,6.28,6.28Zm26.48-.18a6.46,6.46,0,0,1-6.45,6.46h-8.6a6.46,6.46,0,0,1-6.46-6.46V67.6a6.46,6.46,0,0,1,6.46-6.46h8.6a6.47,6.47,0,0,1,6.45,6.46Z"/></g></g></svg>