<svg xmlns="http://www.w3.org/2000/svg" viewBox="0 0 336.14 136.85"><defs><style>.cls-1{fill:#3c8c88;}.cls-2{fill:#d05e4a;}.cls-3{fill:#1b7375;}</style></defs><title>Orbitool Logo</title><g id="Layer_2" data-name="Layer 2"><g id="Background"><path class="cls-1" d="M247.83,47.55l1.35,3.17c6.13.16,9.48,1.53,10.44,3.94-1.47,3.16-7.08,6.79-15.72,10.71,1,1.13,5.61,6.87,6.84,8.7,20.07-7.54,34.11-15.45,37.59-23.34C286.51,42.49,247.83,47.55,247.83,47.55Z"/><path class="cls-2" d="M226.58,136.56h2.09a10.54,10.54,0,0,0,3.92-3C286.31,77.54,235-21.51,151.46,4.17a50.5,50.5,0,0,0-17.67,9.15C228.89-32.86,287.35,82.95,226.58,136.56Z"/><path class="cls-3" d="M108.86,42.75s-79.13,27.51-81.13,39C72.4,97,267.21,28.24,267.21,28.24l-2.73-.81S85.88,87,53,72.92c-4.39-8.74,57.07-29.06,57.07-29.06Z"/><path class="cls-3" d="M116.42,42.05l-1.29.62h0a1,1,0,0,1-1.37-.48l-.85-1.76a1,1,0,0,1,.48-1.37h0l1.29-.62"/><path class="cls-3" d="M116.42,42.05a9,9,0,0,0,2-1.81L117.32,38a8.24,8.24,0,0,0-2.64.47"/><circle class="cls-3" cx="109.4" cy="43.11" r="2.25" transform="translate(30.74 130.52) rotate(-69.53)"/><rect class="cls-3" x="101.53" y="30.06" width="4.94" height="2.53" transform="translate(-3.62 46) rotate(-24.53)"/><rect class="cls-3" x="103.16" y="33.59" width="4.94" height="2.53" transform="translate(-4.94 47) rotate(-24.53)"/><rect class="cls-3" x="104.71" y="36.98" width="4.94" height="2.53" transform="translate(-6.21 47.95) rotate(-24.53)"/><rect class="cls-3" x="109.31" y="47.11" width="4.94" height="2.53" transform="translate(-10 50.77) rotate(-24.53)"/><rect class="cls-3" x="110.94" y="50.64" width="4.94" height="2.53" transform="translate(-11.31 51.76) rotate(-24.53)"/><rect class="cls-3" x="112.49" y="54.03" width="4.94" height="2.53" transform="translate(-12.58 52.71) rotate(-24.53)"/><line class="cls-3" x1="111.47" y1="42.02" x2="113.19" y2="41.23"/><line class="cls-3" x1="104.54" y1="32.48" x2="105.1" y2="33.71"/><line class="cls-3" x1="106.16" y1="36.01" x2="106.65" y2="37.1"/><line class="cls-3" x1="107.7" y1="39.4" x2="108.46" y2="41.07"/><line class="cls-3" x1="110.33" y1="45.16" x2="111.27" y2="47.22"/><line class="cls-3" x1="112.32" y1="49.52" x2="112.88" y2="50.75"/><line class="cls-3" x1="113.93" y1="53.06" x2="114.43" y2="54.14"/><path class="cls-1" d="M2.55,120.34,4,120.28H4a1,1,0,0,1,1.07,1l.09,2a1,1,0,0,1-1,1.07h0l-1.43.06"/><path class="cls-1" d="M2.55,120.34a9,9,0,0,0-2.55.87l.11,2.51a8.24,8.24,0,0,0,2.61.61"/><circle class="cls-1" cx="9.42" cy="122.14" r="2.25" transform="translate(-85.38 44.55) rotate(-46.29)"/><rect class="cls-1" x="7.25" y="133.83" width="4.94" height="2.53" transform="matrix(1, -0.02, 0.02, 1, -3.05, 0.25)"/><rect class="cls-1" x="7.14" y="129.94" width="4.94" height="2.53" transform="matrix(1, -0.02, 0.02, 1, -2.96, 0.25)"/><rect class="cls-1" x="7.06" y="126.22" width="4.94" height="2.53" transform="translate(-2.87 0.25) rotate(-1.29)"/><rect class="cls-1" x="6.83" y="115.1" width="4.94" height="2.53" transform="translate(-2.62 0.24) rotate(-1.29)"/><rect class="cls-1" x="6.72" y="111.21" width="4.94" height="2.53" transform="translate(-2.54 0.24) rotate(-1.29)"/><rect class="cls-1" x="6.64" y="107.49" width="4.94" height="2.53" transform="translate(-2.45 0.23) rotate(-1.29)"/><line class="cls-1" x1="7.08" y1="122.33" x2="5.19" y2="122.37"/><line class="cls-1" x1="9.68" y1="133.83" x2="9.65" y2="132.48"/><line class="cls-1" x1="9.59" y1="129.94" x2="9.56" y2="128.75"/><line class="cls-1" x1="9.51" y1="126.22" x2="9.47" y2="124.39"/><line class="cls-1" x1="9.36" y1="119.89" x2="9.31" y2="117.63"/><line class="cls-1" x1="9.26" y1="115.1" x2="9.23" y2="113.75"/><line class="cls-1" x1="9.17" y1="111.21" x2="9.14" y2="110.02"/><path class="cls-2" d="M256.79,126.53c0-1.71,0-3.18-.12-4.53H259l.09,2.85h.12a4.36,4.36,0,0,1,4-3.18,2.88,2.88,0,0,1,.75.09v2.49a4,4,0,0,0-.9-.09c-1.86,0-3.18,1.41-3.54,3.39a7.38,7.38,0,0,0-.12,1.23v7.74h-2.61Z"/><path class="cls-2" d="M266.6,136.52c.06-1,.12-2.46.12-3.75V115.22h2.61v9.12h.06a5.41,5.41,0,0,1,5-2.67c3.6,0,6.15,3,6.12,7.41,0,5.19-3.27,7.77-6.51,7.77a5.17,5.17,0,0,1-4.86-2.73H269l-.12,2.4Zm2.73-5.82a4.92,4.92,0,0,0,.12,1,4.07,4.07,0,0,0,4,3.09c2.76,0,4.41-2.25,4.41-5.58,0-2.91-1.5-5.4-4.32-5.4a4.21,4.21,0,0,0-4,3.24,5.16,5.16,0,0,0-.15,1.08Z"/><path class="cls-2" d="M286.73,117.92a1.63,1.63,0,0,1-3.27,0,1.61,1.61,0,0,1,1.65-1.65A1.57,1.57,0,0,1,286.73,117.92Zm-2.94,18.6V122h2.64v14.52Z"/><path class="cls-2" d="M294,117.83V122h3.78v2H294v7.83c0,1.8.51,2.82,2,2.82a5.88,5.88,0,0,0,1.53-.18l.12,2a6.47,6.47,0,0,1-2.34.36,3.66,3.66,0,0,1-2.85-1.11c-.75-.78-1-2.07-1-3.78V124h-2.25v-2h2.25v-3.48Z"/><path class="cls-2" d="M313.7,129.14c0,5.37-3.72,7.71-7.23,7.71-3.93,0-7-2.88-7-7.47,0-4.86,3.18-7.71,7.2-7.71S313.7,124.7,313.7,129.14Zm-11.52.15c0,3.18,1.83,5.58,4.41,5.58s4.41-2.37,4.41-5.64c0-2.46-1.23-5.58-4.35-5.58S302.18,126.53,302.18,129.29Z"/><path class="cls-2" d="M330.17,129.14c0,5.37-3.72,7.71-7.23,7.71-3.93,0-7-2.88-7-7.47,0-4.86,3.18-7.71,7.2-7.71C327.35,121.67,330.17,124.7,330.17,129.14Zm-11.52.15c0,3.18,1.83,5.58,4.41,5.58s4.41-2.37,4.41-5.64c0-2.46-1.23-5.58-4.35-5.58S318.65,126.53,318.65,129.29Z"/><path class="cls-2" d="M333.5,115.22h2.64v21.3H333.5Z"/><path class="cls-2" d="M132.54,30.39a19.16,19.16,0,0,0-8.09-7.73,1.35,1.35,0,0,0-.54-.17l-.11,0a.66.66,0,0,0-.37.48c0,.13-.08.38.41.64a18.91,18.91,0,0,1,9.25,10.65l0,0v0l.13.48c.13.45.29,1,.41,1.6a18.9,18.9,0,0,1-1.27,11.61.51.51,0,0,0,.29.73.52.52,0,0,0,.75-.28c.09-.19.16-.35.22-.5A19.68,19.68,0,0,0,132.54,30.39Z"/><path class="cls-2" d="M128.74,35.59l0-.07-.14-.32a14.27,14.27,0,0,0-6.88-7.57.68.68,0,0,0-.49-.09h0a.69.69,0,0,0-.33.35c-.16.3,0,.56.32.75a13.08,13.08,0,0,1,6,17.17c-.09.21-.16.51.3.72a.58.58,0,0,0,.44,0,.57.57,0,0,0,.3-.31A14.26,14.26,0,0,0,128.74,35.59Z"/><path class="cls-2" d="M123.37,37.48A8.46,8.46,0,0,0,119,32.64a.56.56,0,0,0-.44,0,.63.63,0,0,0-.33.33.53.53,0,0,0,.27.74l.2.1a6.78,6.78,0,0,1,.6.34,7.34,7.34,0,0,1,2.7,9.43.5.5,0,0,0,.25.73A.51.51,0,0,0,123,44,8.52,8.52,0,0,0,123.37,37.48Z"/><path class="cls-3" d="M281.38,99.43a19.16,19.16,0,0,0-9.95,5.11,1.35,1.35,0,0,0-.33.45.31.31,0,0,0,0,.11.66.66,0,0,0,.34.51c.12.07.33.2.74-.18a18.91,18.91,0,0,1,13.1-5.25h.09l.5,0c.47,0,1.06.06,1.65.14a18.9,18.9,0,0,1,10.55,5,.51.51,0,0,0,.78,0,.52.52,0,0,0,0-.8l-.4-.37A19.68,19.68,0,0,0,281.38,99.43Z"/><path class="cls-3" d="M285,104.72H285l-.35,0a14.27,14.27,0,0,0-9.41,4,.68.68,0,0,0-.24.43h0a.69.69,0,0,0,.22.43c.24.25.51.23.81-.06a13.08,13.08,0,0,1,18.2-.06.48.48,0,0,0,.78,0,.58.58,0,0,0,.18-.4.57.57,0,0,0-.19-.38A14.26,14.26,0,0,0,285,104.72Z"/><path class="cls-3" d="M285.08,110.41a8.46,8.46,0,0,0-6,2.56.56.56,0,0,0-.19.4.63.63,0,0,0,.21.42.53.53,0,0,0,.79,0l.16-.15a6.78,6.78,0,0,1,.51-.46,7.34,7.34,0,0,1,9.79.54.5.5,0,0,0,.77,0,.51.51,0,0,0,0-.81A8.52,8.52,0,0,0,285.08,110.41Z"/><path class="cls-1" d="M253.84,72.81l18.88-18.88C199.43,81.86,63.45,114.15,10.27,121.44c-20.49,7.47,126.91-14.31,236.07-45.94Z"/></g></g></svg>