<svg xmlns="http://www.w3.org/2000/svg" viewBox="0 0 78.68 78.68"><defs><style>.cls-1{fill:#eeedee;}.cls-2{fill:none;}</style></defs><title>Preview Normal</title><g id="Layer_2" data-name="Layer 2"><g id="Layer_1-2" data-name="Layer 1"><path class="cls-1" d="M39.34,78.68A39.34,39.34,0,1,1,78.68,39.34,39.38,39.38,0,0,1,39.34,78.68Zm0-72.3a33,33,0,1,0,33,33A33,33,0,0,0,39.34,6.38Z"/><path class="cls-2" d="M39.34,30a9.36,9.36,0,1,0,9.36,9.36A9.36,9.36,0,0,0,39.34,30Zm0,14A4.68,4.68,0,1,1,44,39.34,4.68,4.68,0,0,1,39.34,44Z"/><path class="cls-1" d="M39.34,21.87c-10.95.47-20.74,9.93-28,17.41l0,.05S26.86,56.8,39.34,56.8,67.41,39.34,67.41,39.34,51.81,21.87,39.34,21.87Zm0,26.82a9.36,9.36,0,1,1,9.36-9.36A9.36,9.36,0,0,1,39.34,48.69Z"/><circle class="cls-1" cx="39.34" cy="39.34" r="4.68"/></g></g></svg>