<svg xmlns="http://www.w3.org/2000/svg" viewBox="0 0 78.68 78.68"><defs><style>.cls-1{fill:none;}.cls-2{fill:#83c675;}.cls-3{fill:#197375;}.cls-4{fill:#eee;}</style></defs><title>Viewer</title><g id="Layer_2" data-name="Layer 2"><g id="Background"><path class="cls-1" d="M71.44,43.79l-.17-.17-.35.17-.52.35L69.87,44l-.52-.35-.52-.18-.35-.52-.35-.7-.35.17-.35-.17-.18.17h-.35l.17.17v.18c.17.35.17.52.35.87l.17.17V44l.35.17v.52h.17l.17-.52h.17l.17.17v.35l-.17.35.17.17v.18h1l1-1,.18-.17v.7l.18.35.35.18h.29c.05-.29.11-.58.16-.87h-.27Z"/><path class="cls-1" d="M67.42,35.39l.17.52h-.17v.7l-.18.17v.35l.18.52h.52l.35.35.7.17.7-.17v-.17l-.17-.35v-.7l-.35-.17.17-.35H69l.17-.52.52.17.35-.52L69.69,35l-.17-.35-.35.17v.52L69,35v-.17l.17-.35L69,34.34l-.53-.18-.17-.52-.35-.17v-.18h.52v-.52l.35-.17.35.17.17-.7v-.52h-.52l-.35-.17-.52.35-.52.17-.18.35-.52.17-.52.7.35.7v.52C66.89,34.69,67.07,35,67.42,35.39Z"/><polygon class="cls-1" points="57.45 35.91 57.8 35.39 58.39 35.39 58.67 35.39 59.2 35.04 60.24 35.04 61.12 35.04 61.99 35.56 62.69 35.74 63.22 35.56 63.57 35.56 64.09 35.22 64.09 34.87 63.92 34.34 63.57 34.16 63.22 34.16 63.04 33.99 62.34 33.47 61.82 33.29 61.47 32.94 61.82 32.77 62.17 32.24 61.82 31.89 62.52 31.54 62.52 31.37 61.99 31.54 61.64 31.54 61.29 31.72 60.77 31.72 60.42 32.07 60.42 32.42 60.77 32.77 61.29 32.77 61.12 32.94 60.59 33.12 59.9 33.47 59.55 33.29 59.72 32.94 59.2 32.77 59.2 32.59 59.55 32.59 59.37 32.42 58.67 32.24 58.67 31.89 58.19 32.05 58.15 32.07 57.97 32.42 57.62 32.94 57.62 33.12 57.45 33.29 57.27 33.29 57.09 34.16 56.92 34.52 56.74 35.04 56.92 35.39 56.92 35.56 57.27 35.74 57.09 35.91 57.45 35.91"/><path class="cls-1" d="M54.7,14.51l.56.09q2.54.39,5,.9l.92.19,1.44.33A33.08,33.08,0,0,0,52,8.92a40.24,40.24,0,0,1,2.52,5.57Z"/><path class="cls-1" d="M47.86,58.11l-.22-.32v-.17l.18-.18c0-.17.17-.52.17-.7h-.17l.17-.52v-.35l-.17-.35h-.18l-.18-.17H47.3v-.17l-.52.17H46.6l-.17.17h-.35l-.17-.35-.18-.35-.35-.35H44.15l-.35.17-.7.35-.35.17-.52.17-.35-.17H41.7L41.17,55H40.3c-.35.17-.52.17-.87.35h-.35l-.52-.18L38,54.81l-.35-.35-.35-.35h-.18l-.35-.17-.18-.35v-.52l-.17-.35-.17-.18H36.1l-.17-.17V52h-.18l-.18-.17H35.4l-.17-.18L35,51.49v-.7l-.17-.35-.18-.17H35l.18-.35V49l.17-.17v-1.4l-.17-.18L35,47.11v-.52l.18-.17v-.35l.18-.35.35-.35h.18L36.1,45v-.35l.18-.52.35-.17.35-.52.17-.17h.52l.35-.35.17-.17.52-.52-.17-.7.17-.52v-.35l.35-.35.52-.35.35-.17.18-.7.18-.35h.35l.35.17h.52l.52.17h.17l.52-.35.52-.18.35-.17.52-.17A4.85,4.85,0,0,1,45.72,38l.18.17.52-.17h.52l.17-.17h.35l.53-.18h.35V38l.35-.17V38l-.17.35v.35l.17.17v.52l-.35.35.17.35h.17v.17l.35.18.53.17h.17l.35.17.7.18.18.52.52.17.56.14.14,0,.7.17.17-.17.18-.18-.18-.52V41l.35-.35h.35l.7.17.17.18h.18l.18.17h.52v.18h.7a2.53,2.53,0,0,1,1.22.35h.7l.17-.17H59l.17.35.17-.17.35.17h.35l.18-.17.17-.17.17-.35.18-.35v-.17l.18-.52.17-.35v-.52l.18-.17-.18-.35.18-.18h-.35l-.35-.17-.35.35h-.7l-.35-.35h-.52l-.18.17h-.35l-.52-.35H57.1l-.35-.52-.35-.35.18-.52-.35-.35.53-.52h-.17a2.42,2.42,0,0,0-.7.52l-.18-.35v-.18h-.52l-.52.18.35.35-.18.17h-.35l-.17-.35-.18.17.18.35.17.35-.17.17.35.35.18.18v.35L54.3,38l.17.35h-.35l.18.52h-.35l-.35-.35L53.42,38v-.35a2.42,2.42,0,0,0-.52-.7v-.35l-.35-.17V35.22h-.17L52.2,35a.63.63,0,0,0-.22-.13,1.34,1.34,0,0,1-.48-.22l-.35-.17-.52-.17-.35-.52h.18l-.18-.35v-.18l-.35-.17-.18.35-.17-.17v-.17h.17l-.35-.18-.35.18v.52l.17.35.52.35.18.52.17.17h-.35l-.35-.35-.52-.35L48.52,34l-.17-.7h-.18l-.35-.17-.18.17-.35.35h-.18L46.6,34l-1-.18-.7.18v.7l-.52.35-.7.17v.17l-.35.35-.17.52.17.35-.35.35-.18.35-.35.18L42,38H41l-.35.17-.18.17H40.3l-.18-.17-.18-.35-.52-.18-.17.18H38.9V37h-.17l-.17-.18v-.35l.17-.17v-.17l.17-.35v-.35l-.17-.17v-.7l-.17-.35.7-.52.52.17h.7L41,34h1.22l.18-.35.17-1.4-.52-.7-.35-.35-.7-.35v-.52l.7-.17.88.17-.18-.87.52.35,1-.52.16-.63-.16.1h-.7l-.87.17-.18-.17-.35.35h-.52l-.35.35-.17-.17.7-.87.35-.17-.7-.18L41,27.69l.52-.17-.35-.35.18-.52H42v-.52l-.35-.52-.52-.18L41,25.24l.17-.35L41,24.72l-.35.35-.18-.87-.17-.52.35-.87.35-.7h.87l-.52,1,.52-.17h.52l-.18.7-.52.87h.52l.52,1,.35.17.35.87.52.52.52.18v.52l-.18.17.18.35-.1.07a5.13,5.13,0,0,0,.62-.24L45.2,28l.35-1.22.7-.35h.35l.18-.18h.35l.18.18.35-.35-.18-.35v-.52l-.17-.52v-1l.35-.52H48l.17-.17.35-.18v.52l-.17.35v.18l.35.17-.17.35-.17-.17-.35.7.17.35v.35l.52.17v.35l.35-.35.35-.17.52.35.17.35.35-.17a2.71,2.71,0,0,0,.49-.23,5.06,5.06,0,0,1,.91-.47l.53.18v.17h.52l.17-.35.7-.35-.18-.7v-.7l.35-.52h.35l.35.7H55c0-.35.17-.87.17-1.22l-.17.17-.35-.35v-.52l.7-.35.7-.17.53.17h.52l.17-.17-.72-.12L54.82,21l-.35.07-.09-.13-1.89-.27.06.06-.52,1-.52.17-.17,1.57-.35.87h-.52l-.35.7h-.52l-.18-.87-.35-1-.35-1.22h-.17l-1,1-.7.17-.7-.52-.17-1L45.78,20q-3.28-.21-6.65-.21c-3.44,0-6.82.17-10.1.49-2.35.23-4.65.54-6.88.92a78.22,78.22,0,0,0-9.06,2.11l.09.2L13,24l.7.52.52.7.7.17.35.18.17.7,1-.17.17.35v.87c-.17.17-.52.35-.7.52l-.87.35-.7.7-.87.18-1-.18H11.25l-.35.52-.7.35-.7,1-.52.7.35-.17.7-.87,1-.7h.7l.35.35-.52.52v.87l.17.52.7.35-.18.35.52-.87v.52l.35.17-.53.52-1,.35-.52.35-.52.52H10.2v-.52l.87-.52H9.85v.17l-.52.35a2.49,2.49,0,0,0-1,.35c-.17.17-.17.35-.35.52V35l.17.35h.17v-.17l.18.17v.17l-.35.18H7.93l-.35.17H7.4l.18.17-.7.17H6.53c0,.06,0,.12,0,.17h0l0,.06c-.08.94-.13,1.88-.13,2.84A32.78,32.78,0,0,0,8.92,52L9,52v-.17l.17-.17v.52H9.5l.35.35v.17h1l.35.17h.35l.35-.17v-.17h1.22l-.35.17.18.17h.35l.35.17v.35h.17c.17.17.35.17.52.35l.35.35v.17h.17c.17,0,.35.17.52.35l.7.17v-.17h.35c.35.17.7.17,1,.35l.52.35v.17h.17l.17.35.21.52c1.11.24,2.26.46,3.41.66q3.34.58,6.87.94c3.31.33,6.73.5,10.22.5C42.09,58.48,45,58.35,47.86,58.11Zm2.58-22.72h.35l.18.17-.18.18c.35,0,.52.17.88.35l.35.35v.18l-.18.17-.35-.35-.35-.17-.17.35.35.17v.35h-.17l-.18.52H50.8v-.17l.18-.35.18-.17a.88.88,0,0,1-.18-.35.88.88,0,0,0-.18-.35h-.17l-.18-.35-.18-.7Zm-11.9-9.27,1-1h.35l.52.7-.17.52v.52l-.35.7-.87.52-.7-.17.35-.87ZM17.38,31.89H17.2l-.35-.17.17-.52L16.85,31l-.52.7H16l.35-.35-.52-.17H14.4V31l.35-.17-.18-.18.35-.52.52-1.22.35-.52.35-.35h.18l-.18.18a8.52,8.52,0,0,1-.52,1.22l.35-.17.35.17-.18.35.35.18.17-.18.52.18-.17.52.35-.17v.35l.18.52Z"/><path class="cls-1" d="M6.7,36.09l.7-.17H7.05Z"/><path class="cls-1" d="M70.74,48.69l-.17.18V49l-.17.17H70l-.35.17h-.17l-.35.17-.18.18v.17l-.52.18-.7.17-.35.35h-.35l-.35.17-.35.18h-.52l-.17.17h-.18v.17h-.7L64.62,51v-.52l-.18-.35-.18-.18h.18v-.7L64.27,49v-.17l-.17-.18-.18-.35L63.74,48l-.35-.35h-.18l-.35-.52v-.7l-.35-.52-.17-.17L62,45.54l-.18-.35V45l-.18-.35-.17-.17-.17-.35c-.18-.35-.35-.52-.52-.87h-.18v-.7l-.17.18-.17.35-.18.35-.17.18c-.17,0-.17-.18-.35-.35l-.35-.87.17.52.17.52.35.87.17.35h.18l.52.52-.18.18v.35l.52.52v.17l.18.52-.18.18v.52l.18.7c.17.17.35.17.52.35l.35.52.18.52.35.17.87.52.7.7.17.17v.35l.18.17c.17,0,.17.17.35.17l.18.17.18.18h.17l.53-.18h.52l.35-.17h.17l.17-.17h.7l.52-.17h.17v.7l-.17.17-.17.52a7.73,7.73,0,0,1-.42,1L69,53.67a32.74,32.74,0,0,0,1.92-5Z"/><path class="cls-1" d="M15.67,62.24a33.12,33.12,0,0,0,11,7.5A40.72,40.72,0,0,1,24,63.81C21.12,63.4,18.34,62.88,15.67,62.24Z"/><path class="cls-1" d="M47.47,64.54c-2.73.21-5.52.32-8.34.32-2.67,0-5.31-.1-7.9-.28,1.69,3.76,3.68,6.42,5.71,7.63.79.06,1.59.1,2.4.1s1.61,0,2.4-.1C43.77,71,45.77,68.32,47.47,64.54Z"/><path class="cls-1" d="M31.43,13.67c2.53-.18,5.1-.27,7.7-.27s5.47.1,8.14.3c-1.65-3.55-3.57-6.06-5.52-7.22-.79-.06-1.59-.1-2.4-.1s-1.61,0-2.4.1C35,7.64,33.07,10.14,31.43,13.67Z"/><path class="cls-1" d="M54.71,63.74a40.81,40.81,0,0,1-2.67,6,33.12,33.12,0,0,0,11.1-7.64l-.37.09C60.18,62.82,57.48,63.33,54.71,63.74Z"/><path class="cls-1" d="M26.65,8.92a33.09,33.09,0,0,0-10.44,7c2.55-.59,5.21-1.08,7.94-1.46A40.16,40.16,0,0,1,26.65,8.92Z"/><path class="cls-2" d="M6.51,36.44v.06l0-.06Z"/><path class="cls-2" d="M54.82,21l-.44-.07.09.13Z"/><path class="cls-3" d="M6.35,36.44h.16c0-.06,0-.12,0-.17Z"/><path class="cls-4" d="M51,37.14l-.18.35v.17H51l.18-.52h.17v-.35L51,36.61a.88.88,0,0,0,.18.35Z"/><path class="cls-4" d="M39.07,28l.87-.52.35-.7v-.52l.17-.52-.52-.7H39.6l-1,1,.17.87-.35.87Z"/><path class="cls-4" d="M17.38,30.32l-.35.17L17.2,30l-.52-.18L16.5,30l-.35-.18.18-.35L16,29.27l-.35.17a8.52,8.52,0,0,0,.52-1.22l.18-.18h-.18l-.35.35-.35.52-.52,1.22-.35.52.18.18L14.4,31v.17h1.4l.52.17-.35.35h.35l.52-.7.17.17-.17.52.35.17h.18l.18-.7-.18-.52Z"/><path class="cls-4" d="M50.62,36.26h.17a.88.88,0,0,1,.18.35l.17-.35.35.17.35.35.18-.17v-.18l-.35-.35c-.35-.17-.53-.35-.87-.35l.18-.18-.18-.17h-.35l-.18-.17.18.7Z"/><path class="cls-3" d="M7.05,18.42l-.27.27.44-.16Z"/><path class="cls-4" d="M77.14,28.45A39.44,39.44,0,0,0,43.46.22,39.32,39.32,0,0,0,5.58,19.16,39.15,39.15,0,0,0,0,39.34q0,1.45.11,2.88a39.23,39.23,0,0,0,.63,4.72l.12.59q.24,1.11.54,2.21l.08.28A39.42,39.42,0,0,0,35.22,78.46,39.32,39.32,0,0,0,73.55,58.74a39.11,39.11,0,0,0,3.74-9q.37-1.36.65-2.75a39.42,39.42,0,0,0-.79-18.5ZM67.87,54.08a7.73,7.73,0,0,0,.42-1l.17-.52.17-.17v-.7h-.17l-.52.17h-.7l-.17.17h-.17l-.35.17H66l-.53.18h-.17l-.18-.18L65,52c-.17,0-.17-.17-.35-.17l-.18-.17v-.35l-.17-.17-.7-.7-.87-.52-.35-.17-.18-.52-.35-.52c-.18-.17-.35-.17-.52-.35l-.18-.7v-.52l.18-.18-.18-.52v-.17l-.52-.52v-.35l.18-.18-.52-.52h-.18l-.17-.35-.35-.87-.17-.52-.17-.52.35.87c.18.17.18.35.35.35l.17-.18.18-.35.17-.35.17-.18v.7h.18c.17.35.35.52.52.87l.17.35.17.17.18.35v.17l.18.35.35.17.17.17.35.52v.7l.35.52h.18l.35.35.17.35.18.35.17.18V49l.18.18v.7h-.18l.18.18.18.35V51l.17.35h.7v-.17h.18l.17-.17h.52l.35-.18.35-.17h.35l.35-.35.7-.17.52-.18v-.17l.18-.18.35-.17h.17l.35-.17h.35l.17-.17v-.17l.17-.18h.2a32.74,32.74,0,0,1-1.92,5ZM22,57c-1.15-.2-2.29-.42-3.41-.66l-.21-.52-.17-.35h-.17v-.17L17.55,55c-.35-.18-.7-.18-1-.35h-.35v.17l-.7-.17c-.17-.17-.35-.35-.52-.35h-.17v-.17l-.35-.35c-.17-.17-.35-.17-.52-.35H13.7v-.35l-.35-.17H13l-.18-.17.35-.17H12v.17l-.35.17h-.35l-.35-.17h-1v-.17l-.35-.35H9.15v-.52L9,51.84V52l-.05,0A32.78,32.78,0,0,1,6.38,39.34c0-1,.05-1.9.13-2.84v-.06H6.35l.17-.17h.35l.7-.17-.18-.17-.7.17.35-.17h.52l.35-.17H8.1l.35-.18v-.17l-.18-.17v.17H8.1L7.93,35v-.35c.17-.17.17-.35.35-.52a2.49,2.49,0,0,1,1-.35l.52-.35v-.17h1.22l-.87.52v.52h.35l.52-.52.52-.35,1-.35.53-.52-.35-.17v-.52l-.52.87.18-.35-.7-.35-.17-.52v-.87l.52-.52-.35-.35h-.7l-1,.7-.7.87L9,31.54l.52-.7.7-1,.7-.35.35-.52h1.22l1,.18.87-.18.7-.7.87-.35c.17-.17.52-.35.7-.52v-.87l-.17-.35-1,.17-.17-.7-.35-.18-.7-.17-.52-.7L13,24l.18-.52-.09-.2a78.22,78.22,0,0,1,9.06-2.11c2.23-.39,4.53-.69,6.88-.92,3.28-.32,6.66-.49,10.1-.49q3.37,0,6.65.21l.12,1.58.17,1,.7.52.7-.17,1-1h.17L49,23.14l.35,1,.18.87h.52l.35-.7H51l.35-.87.17-1.57.52-.17.52-1-.06-.06,1.89.27.44.07,1.73.3.72.12-.17.17h-.52L56,21.39l-.7.17-.7.35v.52l.35.35.17-.17c0,.35-.17.87-.17,1.22h-.35l-.35-.7h-.35l-.35.52v.7l.18.7-.7.35-.17.35h-.52v-.17l-.53-.18a5.06,5.06,0,0,0-.91.47,2.71,2.71,0,0,1-.49.23l-.35.17-.17-.35-.52-.35-.35.17-.35.35v-.35l-.52-.17v-.35L48,24.89l.35-.7.17.17L48.7,24l-.35-.17v-.18l.17-.35v-.52l-.35.18-.17.17h-.35l-.35.52v1l.17.52v.52l.18.35-.35.35-.18-.18h-.35l-.18.18h-.35l-.7.35L45.2,28l-.18.18a5.13,5.13,0,0,1-.62.24l.1-.07L44.32,28l.18-.17v-.52L44,27.17l-.52-.52-.35-.87-.35-.17-.52-1H41.7l.52-.87.18-.7h-.52l-.52.17.52-1H41l-.35.7-.35.87.17.52.18.87.35-.35.17.17-.17.35.17.17.52.18.35.52v.52h-.7l-.18.52.35.35-.52.17.17.35.7.18-.35.17-.7.87.17.17.35-.35h.52l.35-.35.18.17.87-.17H44l.16-.1-.16.63-1,.52-.52-.35.18.87-.87-.17-.7.17v.52l.7.35.35.35.52.7-.17,1.4-.18.35H41l-.53-.18h-.7l-.52-.17-.7.52.17.35v.7l.17.17v.35l-.17.35v.17l-.17.17v.35l.17.18h.17v.87h.35l.17-.18.52.18.18.35.18.17h.17l.18-.17L41,38h1l.35-.52.35-.18.18-.35.35-.35-.17-.35.17-.52.35-.35v-.17l.7-.17.52-.35V34l.7-.18,1,.18.52-.35h.18l.35-.35.18-.17.35.17h.18l.17.7.35.35.52.35.35.35h.35l-.17-.17-.18-.52L49.22,34,49,33.64v-.52l.35-.18.35.18h-.17v.17l.17.17.18-.35.35.17v.18l.18.35h-.18l.35.52.52.17.35.17a1.34,1.34,0,0,0,.48.22.63.63,0,0,1,.22.13l.17.18h.17v1.22l.35.17V37a2.42,2.42,0,0,1,.52.7V38l.17.52.35.35h.35l-.18-.52h.35L54.3,38l.52.17v-.35l-.18-.18-.35-.35.17-.17-.17-.35-.18-.35.18-.17.17.35h.35l.18-.17-.35-.35.52-.18h.52v.18l.18.35a2.42,2.42,0,0,1,.7-.52h.17l-.53.52.35.35-.18.52.35.35.35.52h.53l.52.35h.35l.18-.17h.52l.35.35h.7l.35-.35.35.17h.35l-.18.18.18.35-.18.17v.52l-.17.35-.18.52v.17l-.18.35-.17.35-.17.17-.18.17h-.35l-.35-.17-.17.17L59,41.51h-.7l-.17.17h-.7a2.53,2.53,0,0,0-1.22-.35h-.7v-.18H55L54.82,41h-.18l-.17-.18-.7-.17h-.35l-.35.35v.17l.18.52-.18.18L52.9,42l-.7-.17-.14,0-.56-.14L51,41.51,50.8,41l-.7-.18-.35-.17h-.17L49,40.46l-.35-.18v-.17h-.17l-.17-.35.35-.35v-.52l-.17-.17v-.35L48.7,38v-.17l-.35.17v-.35H48l-.53.18h-.35l-.17.17h-.52l-.52.17L45.72,38a4.85,4.85,0,0,0-1.57.17l-.52.17-.35.17-.52.18-.52.35H42l-.52-.17H41l-.35-.17H40.3l-.18.35-.18.7-.35.17-.52.35-.35.35V41l-.17.52.17.7-.52.52-.17.17-.35.35h-.52l-.17.17-.35.52-.35.17-.18.52V45l-.17.35h-.18l-.35.35-.18.35v.35l-.18.17v.52l.18.17.17.18v1.4l-.17.17v.88l-.18.35H34.7l.18.17.17.35v.7l.18.17.17.18h.17l.18.17h.18v.35l.17.17h.18l.17.18.17.35v.52l.18.35.35.17h.18l.35.35.35.35.52.35.52.18h.35c.35-.18.52-.18.87-.35h.87l.52.18h.18l.35.17.52-.17L43.1,55l.7-.35.35-.17h1.22l.35.35.18.35.17.35h.35l.17-.17h.18l.52-.17v.17h.17l.18.17h.18l.17.35v.35l-.17.52H48c0,.17-.17.52-.17.7l-.18.18v.17l.22.32c-2.85.24-5.77.37-8.74.37-3.48,0-6.9-.17-10.22-.5Q25.39,57.63,22,57ZM71.74,45.36h-.29l-.35-.18-.18-.35v-.7l-.18.17-1,1h-1v-.18L68.47,45l.17-.35v-.35l-.17-.17h-.17l-.17.52h-.17v-.52L67.59,44v-.17l-.17-.17c-.18-.35-.18-.52-.35-.87v-.18l-.17-.17h.35l.18-.17.35.17.35-.17.35.7.35.52.52.18.52.35.52.17.52-.35.35-.17.17.17.18.7h.27C71.85,44.78,71.79,45.07,71.74,45.36ZM66.19,33.12l.52-.7.52-.17.18-.35.52-.17.52-.35.35.17h.52v.52l-.17.7-.35-.17-.35.17v.52h-.52v.18l.35.17.17.52.53.18.17.17-.17.35V35l.17.35v-.52l.35-.17.17.35.35.35-.35.52-.52-.17-.17.52h.35l-.17.35.35.17v.7l.17.35V38l-.7.17-.7-.17-.35-.35h-.52l-.18-.52v-.35l.18-.17v-.7h.17l-.17-.52c-.35-.35-.52-.7-.87-1v-.52Zm-9.27,2.45v-.17L56.75,35l.17-.52.17-.35.17-.87h.18l.18-.17v-.17l.35-.52.17-.35h0l.48-.16v.35l.7.17.17.18h-.35v.17l.52.17-.18.35.35.18.7-.35.52-.17.18-.17h-.52l-.35-.35v-.35l.35-.35h.52l.35-.18H62l.52-.17v.17l-.7.35.35.35-.35.52-.35.17.35.35.52.18L63,34l.17.17h.35l.35.18.18.52v.35l-.52.35h-.35l-.52.17-.7-.17L61.12,35H59.19l-.52.35H57.8l-.35.52H57.1l.18-.17ZM62.61,16l-1.44-.33-.92-.19q-2.44-.51-5-.9l-.56-.09-.16,0A40.24,40.24,0,0,0,52,8.92,33.08,33.08,0,0,1,62.61,16ZM39.34,6.38c.81,0,1.61,0,2.4.1,2,1.16,3.87,3.67,5.52,7.22-2.67-.2-5.39-.3-8.14-.3s-5.17.1-7.7.27c1.65-3.53,3.56-6,5.51-7.19C37.73,6.42,38.53,6.38,39.34,6.38ZM26.65,8.92a40.16,40.16,0,0,0-2.49,5.5c-2.73.38-5.39.87-7.94,1.46A33.09,33.09,0,0,1,26.65,8.92ZM7.05,18.42l.17.11-.44.16Zm8.62,43.82c2.67.64,5.45,1.16,8.32,1.57a40.72,40.72,0,0,0,2.65,5.93A33.12,33.12,0,0,1,15.67,62.24ZM39.34,72.3c-.81,0-1.61,0-2.4-.1-2-1.21-4-3.86-5.71-7.63,2.59.18,5.23.28,7.9.28,2.82,0,5.61-.11,8.34-.32-1.69,3.78-3.69,6.45-5.72,7.66C40.95,72.26,40.15,72.3,39.34,72.3ZM52,69.74a40.81,40.81,0,0,0,2.67-6c2.77-.41,5.47-.92,8.06-1.54l.37-.09A33.12,33.12,0,0,1,52,69.74Z"/><path class="cls-1" d="M71.44,43.79l-.17-.17-.35.17-.52.35L69.87,44l-.52-.35-.52-.18-.35-.52-.35-.7-.35.17-.35-.17-.18.17h-.35l.17.17v.18c.17.35.17.52.35.87l.17.17V44l.35.17v.52h.17l.17-.52h.17l.17.17v.35l-.17.35.17.17v.18h1l1-1,.18-.17v.7l.18.35.35.18h.29c.05-.29.11-.58.16-.87h-.27Z"/><path class="cls-1" d="M67.42,35.39l.17.52h-.17v.7l-.18.17v.35l.18.52h.52l.35.35.7.17.7-.17v-.17l-.17-.35v-.7l-.35-.17.17-.35H69l.17-.52.52.17.35-.52L69.69,35l-.17-.35-.35.17v.52L69,35v-.17l.17-.35L69,34.34l-.53-.18-.17-.52-.35-.17v-.18h.52v-.52l.35-.17.35.17.17-.7v-.52h-.52l-.35-.17-.52.35-.52.17-.18.35-.52.17-.52.7.35.7v.52C66.89,34.69,67.07,35,67.42,35.39Z"/><polygon class="cls-1" points="57.45 35.91 57.8 35.39 58.39 35.39 58.67 35.39 59.2 35.04 60.24 35.04 61.12 35.04 61.99 35.56 62.69 35.74 63.22 35.56 63.57 35.56 64.09 35.22 64.09 34.87 63.92 34.34 63.57 34.16 63.22 34.16 63.04 33.99 62.34 33.47 61.82 33.29 61.47 32.94 61.82 32.77 62.17 32.24 61.82 31.89 62.52 31.54 62.52 31.37 61.99 31.54 61.64 31.54 61.29 31.72 60.77 31.72 60.42 32.07 60.42 32.42 60.77 32.77 61.29 32.77 61.12 32.94 60.59 33.12 59.9 33.47 59.55 33.29 59.72 32.94 59.2 32.77 59.2 32.59 59.55 32.59 59.37 32.42 58.67 32.24 58.67 31.89 58.19 32.05 58.15 32.07 57.97 32.42 57.62 32.94 57.62 33.12 57.45 33.29 57.27 33.29 57.09 34.16 56.92 34.52 56.74 35.04 56.92 35.39 56.92 35.56 57.27 35.74 57.09 35.91 57.45 35.91"/><path class="cls-1" d="M54.7,14.51l.56.09q2.54.39,5,.9l.92.19,1.44.33A33.08,33.08,0,0,0,52,8.92a40.24,40.24,0,0,1,2.52,5.57Z"/><path class="cls-1" d="M47.86,58.11l-.22-.32v-.17l.18-.18c0-.17.17-.52.17-.7h-.17l.17-.52v-.35l-.17-.35h-.18l-.18-.17H47.3v-.17l-.52.17H46.6l-.17.17h-.35l-.17-.35-.18-.35-.35-.35H44.15l-.35.17-.7.35-.35.17-.52.17-.35-.17H41.7L41.17,55H40.3c-.35.17-.52.17-.87.35h-.35l-.52-.18L38,54.81l-.35-.35-.35-.35h-.18l-.35-.17-.18-.35v-.52l-.17-.35-.17-.18H36.1l-.17-.17V52h-.18l-.18-.17H35.4l-.17-.18L35,51.49v-.7l-.17-.35-.18-.17H35l.18-.35V49l.17-.17v-1.4l-.17-.18L35,47.11v-.52l.18-.17v-.35l.18-.35.35-.35h.18L36.1,45v-.35l.18-.52.35-.17.35-.52.17-.17h.52l.35-.35.17-.17.52-.52-.17-.7.17-.52v-.35l.35-.35.52-.35.35-.17.18-.7.18-.35h.35l.35.17h.52l.52.17h.17l.52-.35.52-.18.35-.17.52-.17A4.85,4.85,0,0,1,45.72,38l.18.17.52-.17h.52l.17-.17h.35l.53-.18h.35V38l.35-.17V38l-.17.35v.35l.17.17v.52l-.35.35.17.35h.17v.17l.35.18.53.17h.17l.35.17.7.18.18.52.52.17.56.14.14,0,.7.17.17-.17.18-.18-.18-.52V41l.35-.35h.35l.7.17.17.18h.18l.18.17h.52v.18h.7a2.53,2.53,0,0,1,1.22.35h.7l.17-.17H59l.17.35.17-.17.35.17h.35l.18-.17.17-.17.17-.35.18-.35v-.17l.18-.52.17-.35v-.52l.18-.17-.18-.35.18-.18h-.35l-.35-.17-.35.35h-.7l-.35-.35h-.52l-.18.17h-.35l-.52-.35H57.1l-.35-.52-.35-.35.18-.52-.35-.35.53-.52h-.17a2.42,2.42,0,0,0-.7.52l-.18-.35v-.18h-.52l-.52.18.35.35-.18.17h-.35l-.17-.35-.18.17.18.35.17.35-.17.17.35.35.18.18v.35L54.3,38l.17.35h-.35l.18.52h-.35l-.35-.35L53.42,38v-.35a2.42,2.42,0,0,0-.52-.7v-.35l-.35-.17V35.22h-.17L52.2,35a.63.63,0,0,0-.22-.13,1.34,1.34,0,0,1-.48-.22l-.35-.17-.52-.17-.35-.52h.18l-.18-.35v-.18l-.35-.17-.18.35-.17-.17v-.17h.17l-.35-.18-.35.18v.52l.17.35.52.35.18.52.17.17h-.35l-.35-.35-.52-.35L48.52,34l-.17-.7h-.18l-.35-.17-.18.17-.35.35h-.18L46.6,34l-1-.18-.7.18v.7l-.52.35-.7.17v.17l-.35.35-.17.52.17.35-.35.35-.18.35-.35.18L42,38H41l-.35.17-.18.17H40.3l-.18-.17-.18-.35-.52-.18-.17.18H38.9V37h-.17l-.17-.18v-.35l.17-.17v-.17l.17-.35v-.35l-.17-.17v-.7l-.17-.35.7-.52.52.17h.7L41,34h1.22l.18-.35.17-1.4-.52-.7-.35-.35-.7-.35v-.52l.7-.17.88.17-.18-.87.52.35,1-.52.16-.63-.16.1h-.7l-.87.17-.18-.17-.35.35h-.52l-.35.35-.17-.17.7-.87.35-.17-.7-.18L41,27.69l.52-.17-.35-.35.18-.52H42v-.52l-.35-.52-.52-.18L41,25.24l.17-.35L41,24.72l-.35.35-.18-.87-.17-.52.35-.87.35-.7h.87l-.52,1,.52-.17h.52l-.18.7-.52.87h.52l.52,1,.35.17.35.87.52.52.52.18v.52l-.18.17.18.35-.1.07a5.13,5.13,0,0,0,.62-.24L45.2,28l.35-1.22.7-.35h.35l.18-.18h.35l.18.18.35-.35-.18-.35v-.52l-.17-.52v-1l.35-.52H48l.17-.17.35-.18v.52l-.17.35v.18l.35.17-.17.35-.17-.17-.35.7.17.35v.35l.52.17v.35l.35-.35.35-.17.52.35.17.35.35-.17a2.71,2.71,0,0,0,.49-.23,5.06,5.06,0,0,1,.91-.47l.53.18v.17h.52l.17-.35.7-.35-.18-.7v-.7l.35-.52h.35l.35.7H55c0-.35.17-.87.17-1.22l-.17.17-.35-.35v-.52l.7-.35.7-.17.53.17h.52l.17-.17-.72-.12L54.82,21l-.35.07-.09-.13-1.89-.27.06.06-.52,1-.52.17-.17,1.57-.35.87h-.52l-.35.7h-.52l-.18-.87-.35-1-.35-1.22h-.17l-1,1-.7.17-.7-.52-.17-1L45.78,20q-3.28-.21-6.65-.21c-3.44,0-6.82.17-10.1.49-2.35.23-4.65.54-6.88.92a78.22,78.22,0,0,0-9.06,2.11l.09.2L13,24l.7.52.52.7.7.17.35.18.17.7,1-.17.17.35v.87c-.17.17-.52.35-.7.52l-.87.35-.7.7-.87.18-1-.18H11.25l-.35.52-.7.35-.7,1-.52.7.35-.17.7-.87,1-.7h.7l.35.35-.52.52v.87l.17.52.7.35-.18.35.52-.87v.52l.35.17-.53.52-1,.35-.52.35-.52.52H10.2v-.52l.87-.52H9.85v.17l-.52.35a2.49,2.49,0,0,0-1,.35c-.17.17-.17.35-.35.52V35l.17.35h.17v-.17l.18.17v.17l-.35.18H7.93l-.35.17H7.4l.18.17-.7.17H6.53c0,.06,0,.12,0,.17h0l0,.06c-.08.94-.13,1.88-.13,2.84A32.78,32.78,0,0,0,8.92,52L9,52v-.17l.17-.17v.52H9.5l.35.35v.17h1l.35.17h.35l.35-.17v-.17h1.22l-.35.17.18.17h.35l.35.17v.35h.17c.17.17.35.17.52.35l.35.35v.17h.17c.17,0,.35.17.52.35l.7.17v-.17h.35c.35.17.7.17,1,.35l.52.35v.17h.17l.17.35.21.52c1.11.24,2.26.46,3.41.66q3.34.58,6.87.94c3.31.33,6.73.5,10.22.5C42.09,58.48,45,58.35,47.86,58.11Zm2.58-22.72h.35l.18.17-.18.18c.35,0,.52.17.88.35l.35.35v.18l-.18.17-.35-.35-.35-.17-.17.35.35.17v.35h-.17l-.18.52H50.8v-.17l.18-.35.18-.17a.88.88,0,0,1-.18-.35.88.88,0,0,0-.18-.35h-.17l-.18-.35-.18-.7Zm-11.9-9.27,1-1h.35l.52.7-.17.52v.52l-.35.7-.87.52-.7-.17.35-.87ZM17.38,31.89H17.2l-.35-.17.17-.52L16.85,31l-.52.7H16l.35-.35-.52-.17H14.4V31l.35-.17-.18-.18.35-.52.52-1.22.35-.52.35-.35h.18l-.18.18a8.52,8.52,0,0,1-.52,1.22l.35-.17.35.17-.18.35.35.18.17-.18.52.18-.17.52.35-.17v.35l.18.52Z"/><path class="cls-1" d="M6.7,36.09l.7-.17H7.05Z"/><path class="cls-1" d="M70.74,48.69l-.17.18V49l-.17.17H70l-.35.17h-.17l-.35.17-.18.18v.17l-.52.18-.7.17-.35.35h-.35l-.35.17-.35.18h-.52l-.17.17h-.18v.17h-.7L64.62,51v-.52l-.18-.35-.18-.18h.18v-.7L64.27,49v-.17l-.17-.18-.18-.35L63.74,48l-.35-.35h-.18l-.35-.52v-.7l-.35-.52-.17-.17L62,45.54l-.18-.35V45l-.18-.35-.17-.17-.17-.35c-.18-.35-.35-.52-.52-.87h-.18v-.7l-.17.18-.17.35-.18.35-.17.18c-.17,0-.17-.18-.35-.35l-.35-.87.17.52.17.52.35.87.17.35h.18l.52.52-.18.18v.35l.52.52v.17l.18.52-.18.18v.52l.18.7c.17.17.35.17.52.35l.35.52.18.52.35.17.87.52.7.7.17.17v.35l.18.17c.17,0,.17.17.35.17l.18.17.18.18h.17l.53-.18h.52l.35-.17h.17l.17-.17h.7l.52-.17h.17v.7l-.17.17-.17.52a7.73,7.73,0,0,1-.42,1L69,53.67a32.74,32.74,0,0,0,1.92-5Z"/><path class="cls-1" d="M15.67,62.24a33.12,33.12,0,0,0,11,7.5A40.72,40.72,0,0,1,24,63.81C21.12,63.4,18.34,62.88,15.67,62.24Z"/><path class="cls-1" d="M47.47,64.54c-2.73.21-5.52.32-8.34.32-2.67,0-5.31-.1-7.9-.28,1.69,3.76,3.68,6.42,5.71,7.63.79.06,1.59.1,2.4.1s1.61,0,2.4-.1C43.77,71,45.77,68.32,47.47,64.54Z"/><path class="cls-1" d="M31.43,13.67c2.53-.18,5.1-.27,7.7-.27s5.47.1,8.14.3c-1.65-3.55-3.57-6.06-5.52-7.22-.79-.06-1.59-.1-2.4-.1s-1.61,0-2.4.1C35,7.64,33.07,10.14,31.43,13.67Z"/><path class="cls-1" d="M54.71,63.74a40.81,40.81,0,0,1-2.67,6,33.12,33.12,0,0,0,11.1-7.64l-.37.09C60.18,62.82,57.48,63.33,54.71,63.74Z"/><path class="cls-1" d="M26.65,8.92a33.09,33.09,0,0,0-10.44,7c2.55-.59,5.21-1.08,7.94-1.46A40.16,40.16,0,0,1,26.65,8.92Z"/><path class="cls-2" d="M6.51,36.44v.06l0-.06Z"/><path class="cls-2" d="M54.82,21l-.44-.07.09.13Z"/><path class="cls-3" d="M6.35,36.44h.16c0-.06,0-.12,0-.17Z"/><path class="cls-4" d="M51,37.14l-.18.35v.17H51l.18-.52h.17v-.35L51,36.61a.88.88,0,0,0,.18.35Z"/><path class="cls-4" d="M39.07,28l.87-.52.35-.7v-.52l.17-.52-.52-.7H39.6l-1,1,.17.87-.35.87Z"/><path class="cls-4" d="M17.38,30.32l-.35.17L17.2,30l-.52-.18L16.5,30l-.35-.18.18-.35L16,29.27l-.35.17a8.52,8.52,0,0,0,.52-1.22l.18-.18h-.18l-.35.35-.35.52-.52,1.22-.35.52.18.18L14.4,31v.17h1.4l.52.17-.35.35h.35l.52-.7.17.17-.17.52.35.17h.18l.18-.7-.18-.52Z"/><path class="cls-4" d="M50.62,36.26h.17a.88.88,0,0,1,.18.35l.17-.35.35.17.35.35.18-.17v-.18l-.35-.35c-.35-.17-.53-.35-.87-.35l.18-.18-.18-.17h-.35l-.18-.17.18.7Z"/><path class="cls-3" d="M7.05,18.42l-.27.27.44-.16Z"/><path class="cls-4" d="M77.14,28.45A39.44,39.44,0,0,0,43.46.22,39.32,39.32,0,0,0,5.58,19.16,39.15,39.15,0,0,0,0,39.34q0,1.45.11,2.88a39.23,39.23,0,0,0,.63,4.72l.12.59q.24,1.11.54,2.21l.08.28A39.42,39.42,0,0,0,35.22,78.46,39.32,39.32,0,0,0,73.55,58.74a39.11,39.11,0,0,0,3.74-9q.37-1.36.65-2.75a39.42,39.42,0,0,0-.79-18.5ZM67.87,54.08a7.73,7.73,0,0,0,.42-1l.17-.52.17-.17v-.7h-.17l-.52.17h-.7l-.17.17h-.17l-.35.17H66l-.53.18h-.17l-.18-.18L65,52c-.17,0-.17-.17-.35-.17l-.18-.17v-.35l-.17-.17-.7-.7-.87-.52-.35-.17-.18-.52-.35-.52c-.18-.17-.35-.17-.52-.35l-.18-.7v-.52l.18-.18-.18-.52v-.17l-.52-.52v-.35l.18-.18-.52-.52h-.18l-.17-.35-.35-.87-.17-.52-.17-.52.35.87c.18.17.18.35.35.35l.17-.18.18-.35.17-.35.17-.18v.7h.18c.17.35.35.52.52.87l.17.35.17.17.18.35v.17l.18.35.35.17.17.17.35.52v.7l.35.52h.18l.35.35.17.35.18.35.17.18V49l.18.18v.7h-.18l.18.18.18.35V51l.17.35h.7v-.17h.18l.17-.17h.52l.35-.18.35-.17h.35l.35-.35.7-.17.52-.18v-.17l.18-.18.35-.17h.17l.35-.17h.35l.17-.17v-.17l.17-.18h.2a32.74,32.74,0,0,1-1.92,5ZM22,57c-1.15-.2-2.29-.42-3.41-.66l-.21-.52-.17-.35h-.17v-.17L17.55,55c-.35-.18-.7-.18-1-.35h-.35v.17l-.7-.17c-.17-.17-.35-.35-.52-.35h-.17v-.17l-.35-.35c-.17-.17-.35-.17-.52-.35H13.7v-.35l-.35-.17H13l-.18-.17.35-.17H12v.17l-.35.17h-.35l-.35-.17h-1v-.17l-.35-.35H9.15v-.52L9,51.84V52l-.05,0A32.78,32.78,0,0,1,6.38,39.34c0-1,.05-1.9.13-2.84v-.06H6.35l.17-.17h.35l.7-.17-.18-.17-.7.17.35-.17h.52l.35-.17H8.1l.35-.18v-.17l-.18-.17v.17H8.1L7.93,35v-.35c.17-.17.17-.35.35-.52a2.49,2.49,0,0,1,1-.35l.52-.35v-.17h1.22l-.87.52v.52h.35l.52-.52.52-.35,1-.35.53-.52-.35-.17v-.52l-.52.87.18-.35-.7-.35-.17-.52v-.87l.52-.52-.35-.35h-.7l-1,.7-.7.87L9,31.54l.52-.7.7-1,.7-.35.35-.52h1.22l1,.18.87-.18.7-.7.87-.35c.17-.17.52-.35.7-.52v-.87l-.17-.35-1,.17-.17-.7-.35-.18-.7-.17-.52-.7L13,24l.18-.52-.09-.2a78.22,78.22,0,0,1,9.06-2.11c2.23-.39,4.53-.69,6.88-.92,3.28-.32,6.66-.49,10.1-.49q3.37,0,6.65.21l.12,1.58.17,1,.7.52.7-.17,1-1h.17L49,23.14l.35,1,.18.87h.52l.35-.7H51l.35-.87.17-1.57.52-.17.52-1-.06-.06,1.89.27.44.07,1.73.3.72.12-.17.17h-.52L56,21.39l-.7.17-.7.35v.52l.35.35.17-.17c0,.35-.17.87-.17,1.22h-.35l-.35-.7h-.35l-.35.52v.7l.18.7-.7.35-.17.35h-.52v-.17l-.53-.18a5.06,5.06,0,0,0-.91.47,2.71,2.71,0,0,1-.49.23l-.35.17-.17-.35-.52-.35-.35.17-.35.35v-.35l-.52-.17v-.35L48,24.89l.35-.7.17.17L48.7,24l-.35-.17v-.18l.17-.35v-.52l-.35.18-.17.17h-.35l-.35.52v1l.17.52v.52l.18.35-.35.35-.18-.18h-.35l-.18.18h-.35l-.7.35L45.2,28l-.18.18a5.13,5.13,0,0,1-.62.24l.1-.07L44.32,28l.18-.17v-.52L44,27.17l-.52-.52-.35-.87-.35-.17-.52-1H41.7l.52-.87.18-.7h-.52l-.52.17.52-1H41l-.35.7-.35.87.17.52.18.87.35-.35.17.17-.17.35.17.17.52.18.35.52v.52h-.7l-.18.52.35.35-.52.17.17.35.7.18-.35.17-.7.87.17.17.35-.35h.52l.35-.35.18.17.87-.17H44l.16-.1-.16.63-1,.52-.52-.35.18.87-.87-.17-.7.17v.52l.7.35.35.35.52.7-.17,1.4-.18.35H41l-.53-.18h-.7l-.52-.17-.7.52.17.35v.7l.17.17v.35l-.17.35v.17l-.17.17v.35l.17.18h.17v.87h.35l.17-.18.52.18.18.35.18.17h.17l.18-.17L41,38h1l.35-.52.35-.18.18-.35.35-.35-.17-.35.17-.52.35-.35v-.17l.7-.17.52-.35V34l.7-.18,1,.18.52-.35h.18l.35-.35.18-.17.35.17h.18l.17.7.35.35.52.35.35.35h.35l-.17-.17-.18-.52L49.22,34,49,33.64v-.52l.35-.18.35.18h-.17v.17l.17.17.18-.35.35.17v.18l.18.35h-.18l.35.52.52.17.35.17a1.34,1.34,0,0,0,.48.22.63.63,0,0,1,.22.13l.17.18h.17v1.22l.35.17V37a2.42,2.42,0,0,1,.52.7V38l.17.52.35.35h.35l-.18-.52h.35L54.3,38l.52.17v-.35l-.18-.18-.35-.35.17-.17-.17-.35-.18-.35.18-.17.17.35h.35l.18-.17-.35-.35.52-.18h.52v.18l.18.35a2.42,2.42,0,0,1,.7-.52h.17l-.53.52.35.35-.18.52.35.35.35.52h.53l.52.35h.35l.18-.17h.52l.35.35h.7l.35-.35.35.17h.35l-.18.18.18.35-.18.17v.52l-.17.35-.18.52v.17l-.18.35-.17.35-.17.17-.18.17h-.35l-.35-.17-.17.17L59,41.51h-.7l-.17.17h-.7a2.53,2.53,0,0,0-1.22-.35h-.7v-.18H55L54.82,41h-.18l-.17-.18-.7-.17h-.35l-.35.35v.17l.18.52-.18.18L52.9,42l-.7-.17-.14,0-.56-.14L51,41.51,50.8,41l-.7-.18-.35-.17h-.17L49,40.46l-.35-.18v-.17h-.17l-.17-.35.35-.35v-.52l-.17-.17v-.35L48.7,38v-.17l-.35.17v-.35H48l-.53.18h-.35l-.17.17h-.52l-.52.17L45.72,38a4.85,4.85,0,0,0-1.57.17l-.52.17-.35.17-.52.18-.52.35H42l-.52-.17H41l-.35-.17H40.3l-.18.35-.18.7-.35.17-.52.35-.35.35V41l-.17.52.17.7-.52.52-.17.17-.35.35h-.52l-.17.17-.35.52-.35.17-.18.52V45l-.17.35h-.18l-.35.35-.18.35v.35l-.18.17v.52l.18.17.17.18v1.4l-.17.17v.88l-.18.35H34.7l.18.17.17.35v.7l.18.17.17.18h.17l.18.17h.18v.35l.17.17h.18l.17.18.17.35v.52l.18.35.35.17h.18l.35.35.35.35.52.35.52.18h.35c.35-.18.52-.18.87-.35h.87l.52.18h.18l.35.17.52-.17L43.1,55l.7-.35.35-.17h1.22l.35.35.18.35.17.35h.35l.17-.17h.18l.52-.17v.17h.17l.18.17h.18l.17.35v.35l-.17.52H48c0,.17-.17.52-.17.7l-.18.18v.17l.22.32c-2.85.24-5.77.37-8.74.37-3.48,0-6.9-.17-10.22-.5Q25.39,57.63,22,57ZM71.74,45.36h-.29l-.35-.18-.18-.35v-.7l-.18.17-1,1h-1v-.18L68.47,45l.17-.35v-.35l-.17-.17h-.17l-.17.52h-.17v-.52L67.59,44v-.17l-.17-.17c-.18-.35-.18-.52-.35-.87v-.18l-.17-.17h.35l.18-.17.35.17.35-.17.35.7.35.52.52.18.52.35.52.17.52-.35.35-.17.17.17.18.7h.27C71.85,44.78,71.79,45.07,71.74,45.36ZM66.19,33.12l.52-.7.52-.17.18-.35.52-.17.52-.35.35.17h.52v.52l-.17.7-.35-.17-.35.17v.52h-.52v.18l.35.17.17.52.53.18.17.17-.17.35V35l.17.35v-.52l.35-.17.17.35.35.35-.35.52-.52-.17-.17.52h.35l-.17.35.35.17v.7l.17.35V38l-.7.17-.7-.17-.35-.35h-.52l-.18-.52v-.35l.18-.17v-.7h.17l-.17-.52c-.35-.35-.52-.7-.87-1v-.52Zm-9.27,2.45v-.17L56.75,35l.17-.52.17-.35.17-.87h.18l.18-.17v-.17l.35-.52.17-.35h0l.48-.16v.35l.7.17.17.18h-.35v.17l.52.17-.18.35.35.18.7-.35.52-.17.18-.17h-.52l-.35-.35v-.35l.35-.35h.52l.35-.18H62l.52-.17v.17l-.7.35.35.35-.35.52-.35.17.35.35.52.18L63,34l.17.17h.35l.35.18.18.52v.35l-.52.35h-.35l-.52.17-.7-.17L61.12,35H59.19l-.52.35H57.8l-.35.52H57.1l.18-.17ZM62.61,16l-1.44-.33-.92-.19q-2.44-.51-5-.9l-.56-.09-.16,0A40.24,40.24,0,0,0,52,8.92,33.08,33.08,0,0,1,62.61,16ZM39.34,6.38c.81,0,1.61,0,2.4.1,2,1.16,3.87,3.67,5.52,7.22-2.67-.2-5.39-.3-8.14-.3s-5.17.1-7.7.27c1.65-3.53,3.56-6,5.51-7.19C37.73,6.42,38.53,6.38,39.34,6.38ZM26.65,8.92a40.16,40.16,0,0,0-2.49,5.5c-2.73.38-5.39.87-7.94,1.46A33.09,33.09,0,0,1,26.65,8.92ZM7.05,18.42l.17.11-.44.16Zm8.62,43.82c2.67.64,5.45,1.16,8.32,1.57a40.72,40.72,0,0,0,2.65,5.93A33.12,33.12,0,0,1,15.67,62.24ZM39.34,72.3c-.81,0-1.61,0-2.4-.1-2-1.21-4-3.86-5.71-7.63,2.59.18,5.23.28,7.9.28,2.82,0,5.61-.11,8.34-.32-1.69,3.78-3.69,6.45-5.72,7.66C40.95,72.26,40.15,72.3,39.34,72.3ZM52,69.74a40.81,40.81,0,0,0,2.67-6c2.77-.41,5.47-.92,8.06-1.54l.37-.09A33.12,33.12,0,0,1,52,69.74Z"/></g></g></svg>